<?xml version="1.0" encoding="utf-8"?>
<!-- Generator: Adobe Illustrator 21.0.2, SVG Export Plug-In . SVG Version: 6.00 Build 0)  -->
<svg version="1.0" id="Layer_1" xmlns="http://www.w3.org/2000/svg" xmlns:xlink="http://www.w3.org/1999/xlink" x="0px" y="0px"
	 viewBox="0 0 20 20" enable-background="new 0 0 20 20" xml:space="preserve">
<path fill="#FFFFFF" d="M9.9545,19.9944C4.9496,20.1333-0.0083,15.8927,0,10.0208C0.0078,4.5303,4.4778,0.0095,9.9093,0
	C15.5136-0.0097,19.9868,4.4564,20,10.0338C20.0137,15.8445,15.057,20.1784,9.9545,19.9944z M12.1858,14.9037
	c-0.3287,0.0447-0.611,0.1069-0.8952,0.1172c-0.7279,0.0265-0.972-0.2219-0.8611-0.9403c0.0913-0.5911,0.2604-1.1701,0.3926-1.755
	c0.1895-0.8383,0.4554-1.6689,0.5446-2.5179c0.1081-1.0279-0.6071-1.7182-1.645-1.7713C8.9705,7.9979,8.2862,8.2388,7.5868,8.463
	c-0.4389,0.1407-0.527,0.4227-0.5577,0.822c0.2625-0.0503,0.4891-0.1096,0.7194-0.1349c0.8705-0.0954,1.1794,0.2127,1.0286,1.0722
	c-0.0967,0.5513-0.2664,1.0894-0.3913,1.6361c-0.1885,0.8251-0.4342,1.6447-0.5315,2.481c-0.1181,1.0157,0.5619,1.6909,1.5855,1.783
	c0.7995,0.0719,1.5111-0.1942,2.2464-0.4321C12.1208,15.5498,12.2021,15.2885,12.1858,14.9037z M10.8817,6.6869
	c0.8546-0.0004,1.5277-0.6133,1.5343-1.3969c0.0064-0.7644-0.7041-1.4268-1.5226-1.4196C10.0266,3.878,9.3608,4.513,9.3697,5.3233
	C9.3783,6.0972,10.0326,6.6873,10.8817,6.6869z"/>
</svg>
