<?xml version="1.0" encoding="utf-8"?>
<!-- Generator: Adobe Illustrator 21.0.2, SVG Export Plug-In . SVG Version: 6.00 Build 0)  -->
<svg version="1.0" id="Layer_1" xmlns="http://www.w3.org/2000/svg" xmlns:xlink="http://www.w3.org/1999/xlink" x="0px" y="0px"
	 viewBox="0 0 250 100" enable-background="new 0 0 250 100" xml:space="preserve">
<g>
	<path fill="#022A5D" d="M166.3224,64.3757c0.0442-0.0901,0.0895-0.1356,0.1349-0.1803v-0.046c0.0454,0,0.0908-0.0448,0.1816-0.0902
		c0.1349-0.1356,0.2257-0.2263,0.3165-0.2711c0.1804-0.181,0.4969-0.4074,0.9042-0.7239c0.3619-0.3165,0.6331-0.5422,0.7692-0.6784
		c0.4074-0.3613,0.8135-0.814,1.2208-1.2662c0.1362-0.1809,0.3165-0.4073,0.4981-0.6784c0.0895-0.1362,0.2711-0.3619,0.4515-0.6337
		c0.0908-0.0902,0.0908-0.1356,0.1362-0.1803c0.1803-0.181,0.2712-0.4074,0.3619-0.5883c0.0896-0.2257,0.1803-0.4969,0.1803-0.7686
		c0-0.0454,0.0454-0.0908,0.0454-0.0908c0-0.0448,0-0.0902,0-0.1356c0.0453-0.0902,0.0908-0.2258,0.1803-0.3166
		c0-0.0447,0-0.0908,0.0453-0.0908c0-0.0448,0.0454-0.0901,0.0454-0.0901c0.0454-0.0448,0.0908-0.0448,0.1362-0.0902
		c0,0,0.0454,0,0.0896,0c0.0453-0.0454,0.0908-0.0454,0.1362-0.0454c0-0.0454,0.0453-0.0454,0.0908-0.0454
		c0.0454,0,0.0454,0,0.0896,0.0454c0,0.0454,0,0.0454,0,0.0908c0.0454,0,0.0908,0.0448,0.0908,0.0901
		c0,0.0448,0.0454,0.0908,0.0454,0.0908c-0.0454,0.0447-0.0454,0.0901-0.0454,0.1356c0,0.0448,0,0.0901,0,0.0901
		c0,0.0454,0,0.0908-0.0453,0.1356c0,0.0454-0.0454,0.1356-0.135,0.1809c0,0.0908,0,0.181,0,0.2264
		c0,0.0448-0.0454,0.1356-0.0454,0.181c-0.0453,0.181-0.0908,0.3165-0.1815,0.4067c0,0.181-0.0442,0.3165-0.135,0.5429
		c-0.0908,0.181-0.2257,0.3619-0.4073,0.5429c-0.0908,0.2257-0.2711,0.4073-0.4515,0.6779
		c-0.1361,0.1362-0.3177,0.3171-0.5435,0.5883c-0.1349,0.181-0.2258,0.2711-0.3165,0.3165
		c-0.3619,0.4527-0.8134,0.9048-1.3569,1.3569c-0.4981,0.4074-0.9496,0.7687-1.4477,1.0852
		c-0.135,0.1362-0.2258,0.181-0.3153,0.2263c-0.1362,0.0908-0.227,0.1356-0.3177,0.1356c-0.0454,0.0908-0.0896,0.1356-0.135,0.1809
		c-0.0908,0.0454-0.1362,0.0454-0.1816,0.0454c-0.0453,0-0.0895-0.0454-0.1349-0.0454c0-0.0454,0-0.0454,0-0.0901
		c-0.0454,0-0.0454,0-0.0454-0.0454c0-0.0454,0-0.0454,0-0.0901C166.2769,64.4665,166.2769,64.4211,166.3224,64.3757z"/>
	<path fill="#022A5D" d="M163.6993,93.1402c0.0442-0.0453,0.0896-0.1349,0.1803-0.2711c1.5373-2.5323,2.7139-4.975,3.4819-7.1911
		l0.1815-0.5876c0-0.1356,0.0454-0.2264,0.135-0.3165c0.0453-0.0454,0.0453-0.0454,0.0908-0.0454
		c0.0454-0.0453,0.0908-0.0453,0.0908-0.0453c0.0454,0,0.0454-0.0448,0.0454-0.0448c0.0454-0.046,0.0454-0.046,0.0896-0.046
		c0,0,0.0466,0,0.0466,0.046c0.0442,0,0.0442,0.0448,0.0442,0.0901c0.0454,0,0.0908,0.0454,0.0908,0.0902
		c0,0.0453,0,0.0453,0,0.0901c0,0.046,0,0.0908,0,0.1362l-0.0454,0.5429c0,0.1356,0,0.2258,0,0.3619
		c0,0.1356-0.0454,0.3165-0.0896,0.4521c-0.0466,0.1356-0.0908,0.2711-0.1816,0.4518c-0.1815,0.4981-0.4073,0.995-0.6784,1.5839
		c-0.2712,0.4515-0.5423,0.995-0.8588,1.5373c-0.2724,0.4527-0.5435,0.9496-0.9054,1.5372
		c-0.2258,0.3165-0.4969,0.8147-0.9042,1.4477c-0.0454,0-0.0908,0.0454-0.0908,0.0908c-0.0442,0.0442-0.0442,0.0895-0.0896,0.1349
		c-0.0454,0.0908-0.0454,0.1362-0.0908,0.1816c0,0.0442-0.0454,0.0908-0.0908,0.0908v0.0442
		c-0.1349,0.0454-0.2257,0.0454-0.3619,0.0908c-0.0454,0-0.0896,0-0.0896,0c-0.0466-0.0454-0.0908-0.1349-0.0466-0.1815
		C163.6527,93.3218,163.6527,93.231,163.6993,93.1402z"/>
	<path fill="#022A5D" d="M97.2135,79.708c0,0.0454-0.0442,0.0454-0.0896,0.0908l-0.4527,0.3613
		c-0.8588,0.4527-2.0808,1.0858-3.7089,1.9446c-1.1753,0.5883-2.0354,1.041-2.6231,1.3115
		c-0.9496,0.4974-1.8084,0.9502-2.5777,1.3575c-1.8992,0.995-3.6181,1.9446-5.1566,2.8037
		c-0.0895,0.0454-0.1803,0.0908-0.3165,0.1362c-0.0442,0.0442-0.1349,0.0442-0.1349,0.0908c-0.0454,0-0.0908,0-0.1362,0
		c-0.0454,0.0896-0.135,0.1349-0.1803,0.1803c-0.0908,0.0454-0.1362,0.0454-0.227,0.0454c-0.0442,0-0.0895-0.0454-0.0895-0.0454
		c-0.0454-0.0454-0.0908-0.0454-0.1362-0.0908v-0.0454l0.0453-0.5423c0.0454-0.0454,0.0908-0.0908,0.1362-0.1362
		c0,0,0.0442-0.0454,0.0442-0.0896c0.0454-0.0454,0.0454-0.0908,0.0908-0.0908c0-0.0453,0.0453-0.0908,0.0908-0.0908
		c0.135-0.0454,0.2711-0.1359,0.3619-0.1807c0.0454-0.0454,0.0908-0.0454,0.1349-0.0908c0-0.0448,0.0454-0.0448,0.0908-0.0902
		h0.0454c0.6785-0.3619,1.4919-0.7686,2.352-1.176c0.5422-0.2257,1.3115-0.5876,2.3519-1.0858
		c0.9496-0.4067,1.6735-0.7686,2.1249-0.9496c0.8147-0.4073,1.4931-0.7238,2.1262-1.0404c1.5826-0.7686,2.985-1.4925,4.2511-2.2611
		c0.0908,0,0.1815-0.0454,0.2711-0.0901c0.0454-0.0454,0.1362-0.0908,0.227-0.1356c0.0896-0.0454,0.1803-0.0908,0.2258-0.1362
		c0.0454-0.0448,0.1362-0.0902,0.1816-0.0902c0.0895-0.0454,0.1803-0.0901,0.2257-0.1356c0.0454,0,0.0908,0,0.135,0
		c0.0454,0,0.0454,0,0.1362,0.0454h0.2258c0.0453,0,0.0453,0,0.0453,0v0.0447c0,0.0454,0,0.0454,0,0.0908l-0.0453,0.0448
		C97.259,79.708,97.259,79.708,97.2135,79.708z"/>
	<path fill="#022A5D" d="M192.0107,62.8832c0-0.0448,0.0454-0.0902,0.0454-0.0902c0.0454,0,0.0454-0.0454,0.0908-0.0454
		s0.0908,0,0.1803,0.0454c0.0454,0,0.0454,0,0.0908,0c0.0454,0.0454,0.0908,0.0454,0.0908,0.0902
		c0.0453,0.0454,0.0453,0.0908,0.0908,0.0908c0,0.0448,0,0.0901,0,0.1356c0.0896,0.0902,0.1349,0.1803,0.1803,0.2264
		c0.0908,0.0901,0.1362,0.1356,0.1816,0.2257c0.0895,0.1356,0.1803,0.2712,0.2711,0.4074c0.0896,0.0901,0.1803,0.2263,0.3165,0.4521
		c0.135,0.181,0.2712,0.3619,0.3165,0.4975c0.135,0.181,0.2712,0.3165,0.3619,0.4975c0.0896,0.0908,0.1803,0.2258,0.2711,0.3619
		c0.0454,0.0901,0.135,0.2257,0.2258,0.3613c0.0908,0.1362,0.1362,0.2264,0.1816,0.2718c0.0442,0.0908,0.1349,0.181,0.1803,0.2257
		c0.1362,0.1816,0.227,0.3626,0.4073,0.4527c0,0,0,0,0,0.0454l0.362,0.5877c0,0.0454,0,0.1356,0.0454,0.1809
		c0,0.0448,0,0.0908,0.0442,0.0908v0.0448c0,0.0453,0,0.0453,0,0.0908l-0.0442,0.0454h-0.0454c0,0-0.0454,0-0.0908,0
		c-0.0454,0-0.0908,0-0.0908,0c-0.0453,0-0.0895,0-0.0895-0.0454c-0.0908,0-0.0908-0.0908-0.0908-0.1356
		c-0.0453-0.046-0.0908-0.0908-0.1362-0.1362c-0.0908-0.1803-0.1803-0.2712-0.2711-0.3165c-0.3165-0.4067-0.6785-0.814-0.995-1.2662
		c-0.1349-0.1809-0.2711-0.4073-0.4515-0.6784c-0.1361-0.181-0.3177-0.4067-0.5435-0.7239
		c-0.1349-0.0901-0.2258-0.2263-0.3619-0.3619c-0.0895-0.0902-0.1803-0.2258-0.3165-0.4067
		c-0.0908-0.1356-0.1803-0.2264-0.2257-0.3165c0-0.0454-0.0454-0.0908-0.0908-0.181c0-0.0454-0.0454-0.0908-0.0454-0.1356
		c0-0.0454-0.0454-0.0908-0.0454-0.1356c0-0.0908-0.0442-0.181,0-0.3172C192.0107,62.974,192.0107,62.9286,192.0107,62.8832z"/>
	<path fill="#022A5D" d="M163.5177,94.0002c0.135,0.1803,0.0454,0.5876-0.2711,0.9496c-0.3165,0.3619-0.7239,0.4981-0.9054,0.3619
		c-0.1804-0.1816-0.0896-0.5889,0.2724-0.9497C162.93,94.0002,163.3361,93.8641,163.5177,94.0002z"/>
	<path fill="#022A5D" d="M173.7388,74.2355c0.3619,0.0454,0.6331,0.3165,0.5889,0.6331c-0.0454,0.3165-0.3165,0.5429-0.6797,0.4975
		c-0.3607,0-0.5877-0.2711-0.5877-0.5876C173.1057,74.4619,173.4223,74.2355,173.7388,74.2355z"/>
	<path fill="#022A5D" d="M214.8515,79.2553c0.0454-0.0448,0.0896-0.0448,0.1803-0.0448c0-0.0454,0.0454-0.0454,0.0908-0.0901
		c0.0453,0,0.0908,0,0.1362,0c0.0442,0,0.0895,0,0.1349,0.0448c0.0454,0,0.1362,0.0454,0.1816,0.0901c0.0442,0,0.0895,0,0.0895,0
		c0.0454,0.046,0.0908,0.046,0.1362,0.046c0.0908,0.0448,0.135,0.0901,0.1804,0.181c0.1815,0.0901,0.4073,0.2257,0.7238,0.4067
		c0.4073,0.2712,0.6785,0.4521,0.9043,0.5877c0.5435,0.3619,1.0404,0.814,1.5826,1.4471c0.0466,0.0453,0.1362,0.1362,0.227,0.227
		c0,0.0448,0.0908,0.0902,0.1362,0.2258c0.0442,0.0448,0.0442,0.0448,0.0896,0.0908c0,0.0448,0.0454,0.0448,0.0454,0.0902
		c0,0.0448,0,0.0901,0,0.0901c0,0.0454,0,0.0454-0.0454,0.0454c0,0.0454-0.0454,0.0454-0.0454,0.0454c-0.0442,0-0.0442,0-0.0896,0
		c-0.0454,0-0.0454-0.0454-0.0908-0.0454c-0.0908-0.0454-0.1362-0.0908-0.1803-0.1356c-0.0908-0.0454-0.1362-0.0454-0.1816-0.0902
		c-0.0453-0.046-0.0908-0.0908-0.1815-0.1816c-0.0442-0.0447-0.0442-0.0447-0.0442-0.0447
		c-0.1362-0.0902-0.2724-0.2264-0.4074-0.4074c-0.1362-0.0901-0.2257-0.181-0.2711-0.2263
		c-0.0908-0.0902-0.1816-0.1356-0.2258-0.1803c-0.3631-0.3172-0.7692-0.5883-1.222-0.814
		c-0.1803-0.0908-0.3619-0.2264-0.5876-0.3165c-0.1362-0.0908-0.3619-0.181-0.6331-0.2718
		c-0.0453-0.0454-0.0908-0.0901-0.1362-0.1356c0,0-0.0453-0.0454-0.1349-0.0454c-0.0908-0.0902-0.1816-0.1356-0.2269-0.1356
		c-0.0896-0.0453-0.135-0.0901-0.1804-0.1356c0-0.0454,0-0.0901,0-0.0901c0-0.0454,0-0.0908,0-0.1362
		C214.8515,79.3461,214.8515,79.3013,214.8515,79.2553z"/>
	<path fill="#022A5D" d="M212.545,77.8088c0-0.046,0.0442-0.0908,0.0895-0.0908c0.0454-0.0454,0.0908-0.0454,0.0908-0.0454
		l0.1362,0.0454c0.0442,0,0.0895,0,0.0895,0c0.0454,0,0.0454,0,0.0908,0c0,0.0448,0.0454,0.0448,0.0454,0.0908
		c0,0,0.0454,0,0.0908,0.0448l0.0442,0.0454c0.0466,0.0447,0.0908,0.0908,0.0908,0.1356h0.0454
		c0.0454,0,0.0454,0.0453,0.0908,0.0453c0,0,0,0,0.0454,0.0454c0,0,0.0442,0.0448,0.0442,0.0902h0.0466l-0.0466,0.1356v0.181
		h-0.0442h-0.1362l-0.1362-0.0448h-0.135c-0.0454,0-0.0454,0-0.0908-0.0454c0,0-0.0454,0-0.0454-0.0454
		c-0.0453-0.0453-0.0453-0.0453-0.0453-0.0453c-0.0442-0.0448-0.0442-0.0448-0.0896-0.0448h-0.1362
		c-0.0454,0-0.1349-0.046-0.2258-0.0908c0-0.0454-0.0453-0.0902-0.0453-0.0902v-0.1356c0-0.0908,0.0453-0.1362,0.0908-0.181H212.545
		z"/>
	<path fill="#022A5D" d="M85.5005,58.2247c0.1803,0.1356,0.0454,0.5883-0.2711,0.9049c-0.3178,0.3613-0.7239,0.5422-0.9054,0.3613
		c-0.1804-0.181-0.0454-0.5877,0.2711-0.949C84.9116,58.1794,85.3189,58.0438,85.5005,58.2247z"/>
	<path fill="#022A5D" d="M41.0409,30.5004c0-0.0454,0.0454-0.1356,0.0908-0.181c0.0454,0,0.0908-0.0448,0.1362-0.1356
		c0.0454-0.0908,0.0896-0.1362,0.1349-0.181c0.1816-0.2717,0.4074-0.4975,0.7239-0.6785c0-0.0454,0-0.0454,0.0454-0.0454
		c0.2712-0.1356,0.5877-0.2264,0.9042-0.3613c0,0,0.0454,0,0.0908,0c0.3619,0.0448,0.8588,0.0448,1.5373-0.0454
		c0.1816,0,0.3165,0,0.4073-0.0454c0.0454,0,0.0454,0,0.0454,0c0.3619,0.0454,0.8147,0.181,1.3115,0.4522
		c0.0454,0,0.0454,0.0454,0.0908,0.0454c0,0.0448,0.0454,0.0448,0.135,0.0902c0.227,0.1362,0.3619,0.2717,0.4073,0.4527
		l0.3619,0.4073c0.0454,0.0902,0.0454,0.135,0.0454,0.1803l-0.0454,0.5877c0,0.0453-0.0454,0.1362-0.0908,0.1815
		c-0.0442,0-0.0895,0.0454-0.1349,0.0902c-0.1362,0.0901-0.227,0.181-0.2711,0.2263c-0.1362,0.1804-0.3166,0.2712-0.5435,0.3619
		c-0.0453,0-0.1349,0.0448-0.1349,0.0448c-0.0908,0.0902-0.227,0.1355-0.3165,0.1355c-0.0908,0-0.1816,0-0.2724,0
		c-0.135,0-0.2258-0.0453-0.2712-0.1355c-0.0453-0.0448-0.0908-0.1356-0.0908-0.2711c0.0454-0.1356,0.0908-0.2718,0.2724-0.4067
		c0.0454-0.0454,0.0896-0.0908,0.1803-0.0908c0.0454,0,0.1362-0.0454,0.2711-0.181c0.1362-0.1356,0.227-0.181,0.227-0.2264
		c0-0.0901,0.0442-0.1356,0.0896-0.1804c0.0453,0,0.0453,0,0.0453,0c0-0.0453,0-0.0453,0-0.0453
		c-0.0453-0.0454-0.0908-0.1362-0.0908-0.181c0-0.0454,0-0.0454-0.0442-0.0902c-0.0454,0-0.0454,0-0.0908,0
		c-0.1362-0.0908-0.2711-0.1362-0.4527-0.1815c-0.0454,0-0.0895-0.0454-0.1349-0.0902c-0.0454-0.0454-0.1362-0.0902-0.3165-0.0902
		c-0.0454,0.0448-0.1362,0.0448-0.227,0.0902c-0.0454,0-0.0454,0.0448-0.0896,0.0448c0,0.227-0.0908,0.4073-0.1816,0.4981
		c-0.0454,0.3165-0.1349,0.4969-0.2711,0.6331c-0.0454,0.0454-0.1362,0.1356-0.2712,0.2257
		c-0.1362,0.0908-0.227,0.1816-0.3165,0.2718c-0.0454,0-0.0454,0-0.0454,0.0448c-0.0908,0.0454-0.2258,0.1362-0.3619,0.1815
		c-0.0908,0.0448-0.2258,0.0448-0.3165,0.0902c-0.1362,0.0448-0.3165,0.0901-0.4981,0.0901
		c-0.6785-0.0901-0.3619-0.6785-0.1349-0.9496v-0.3165c0,0,0,0,0-0.0454H42.534c-0.0454,0-0.0908,0.0454-0.1362,0.0908
		c0,0,0,0-0.0454,0c-0.135,0.4975-0.7226,0.814-1.1754,0.6331c-0.0454,0-0.1362-0.0454-0.1804-0.0908
		c-0.0454-0.0447-0.0454-0.1349-0.0454-0.1803l0.0454-0.2717L41.0409,30.5004z"/>
	<path fill="#022A5D" d="M0.9245,60.0792c0,0.0908,0,0.2258,0.0454,0.4527c0.0454,0.0448,0.0454,0.0901,0.0454,0.1349
		c0,0.0454,0,0.0908,0.0454,0.1816c0.0442,0.181,0.1803,0.4067,0.4515,0.6331c0.0454,0.0454,0.0908,0.0902,0.0908,0.0902
		c0.0454,0.0454,0.0908,0.0901,0.1362,0.1356c0.0442,0.0454,0.0895,0.0454,0.1349,0.0908c0.3619,0.2264,0.5876,0.3165,0.7238,0.3619
		l0.995,0.0901c0.0908,0,0.1362,0,0.1803,0c0.5435-0.1356,1.0404-0.3619,1.5839-0.6331h0.0454
		c0.3607-0.2263,0.9042-0.5876,1.6281-1.0404c1.8538-1.2214,3.2561-2.0348,4.2511-2.4421v-0.0454
		c9.6788-4.4327,19.4926-7.6888,29.353-9.8592c3.753-0.8147,7.733-1.3122,11.8946-1.4931
		c3.6181-0.1804,7.5527-0.1356,11.8492,0.1361c0.9054,0.0448,1.8097,0.135,2.7139,0.2258c2.2611,0.2264,4.84,0.6331,7.6889,1.1312
		c1.8538,0.3613,3.5727,0.8134,5.2007,1.4017c0,0,0.0454,0,0.0908,0c0.0453,0,0.1362,0.0447,0.2258,0.0901
		c0,0,0.0453,0.0454,0.0908,0.0454l0.1815,0.2257l-0.0454,0.3619c0,0.1362,0,0.3165,0.0454,0.5429c0,0.1356,0,0.2717,0,0.3172
		c0,0.0447,0,0.0901,0,0.0901c0.4515,4.3413,1.4011,8.5483,2.8943,12.6639c0.0453,0.1356,0.0453,0.3613,0,0.7232
		c0,0.0454,0,0.0454,0,0.0454c-0.0454,0.3165-0.0908,0.4975-0.1362,0.6331c-1.4465,1.9446-3.7984,4.8848-7.1,8.7292
		c-2.1261,2.4875-3.6634,4.3419-4.6584,5.608c-1.8096,2.2158-3.0304,4.161-3.6634,5.7443
		c-0.3165,0.6779-0.5889,1.6725-0.9054,2.9853c0,0,0,0,0,0.0442c-0.0896,0.5877-0.0896,1.222-0.0454,1.9459
		c0.0454,0.4061,0.1362,0.995,0.227,1.763c0.0908,0.6785,0.3166,1.2674,0.5877,1.7643c0.3165,0.6331,0.6331,1.1312,0.9042,1.4477
		c0.0908,0.0896,0.1362,0.1349,0.227,0.1803c0.0896,0.0908,0.1803,0.1816,0.2711,0.2711c0.0908,0.0454,0.135,0.0454,0.2258,0.0908
		h0.2711c0.227,0.0454,0.4074-0.0454,0.5889-0.1803c0.0896-0.0908,0.1803-0.1816,0.2258-0.2724
		c0.0454,0.0453,0.0908,0.0453,0.135,0.0908c0,0,0,0,0.0454,0.0454c0.0908,0.1362,0.1816,0.3165,0.4074,0.4969
		c0.0454,0.0454,0.0908,0.0908,0.0908,0.0908c0,0.0454,0,0.0454,0,0.0454c0.2258,0.2711,0.6331,0.5876,1.1299,1.0404h0.0454
		c1.1766,0.7681,2.3519,1.2662,3.4831,1.5373c0.2258,0.1362,0.4515,0.2258,0.6785,0.2724l0.4073,0.0442
		c0.135,0,0.2712-0.0442,0.3607-0.1349c0.1362-0.0908,0.227-0.1816,0.2724-0.227c0.0454-0.0895,0.0896-0.2257,0.0896-0.3619v-0.0896
		h0.0454c0.3165,0.0896,0.6331,0.1349,0.9496,0.1804c0.6785,0.0454,1.4931,0,2.4881-0.135c1.1312-0.1361,2.3973-0.5435,3.7089-1.222
		c0.4515-0.2257,0.995-0.5876,1.6735-1.0404c0.2711-0.2258,0.4969-0.3607,0.6785-0.4515c0-0.0453,0.0454-0.0453,0.0895-0.0908
		c0.8601-0.86,1.4931-1.6281,1.9459-2.2611c0.3165-0.3165,0.5876-0.6785,0.7681-1.1312c0.1362-0.2711,0.2711-0.6785,0.4073-1.2207
		c0,0,0,0,0-0.0454c0.1362-0.1803,0.2258-0.4527,0.2711-0.8588c0-0.0908,0-0.2711-0.0908-0.4073c0-0.0454,0-0.0454,0-0.0454
		c0-0.1362-0.0442-0.2711-0.1349-0.3619c-0.1816-0.1815-0.3619-0.2711-0.5877-0.3165l-0.5435-0.0454c-0.0454,0-0.0896,0-0.0896,0
		l0.0442-0.4515c0.0454-0.0908,0.0908-0.1816,0.1362-0.2724c0.0454-0.0908,0.0454-0.1349,0.0908-0.1803
		c0.0454-0.0454,0.0896-0.0454,0.135-0.0908c0.1362-0.0896,0.2724-0.1362,0.3619-0.1803c0.3619-0.1362,0.9496-0.4074,1.6734-0.7692
		c0.6785-0.3616,1.222-0.6334,1.5827-0.7236c0.0454-0.0454,0.0908-0.0908,0.1361-0.1356c0.0454-0.0454,0.1362-0.0908,0.2258-0.0908
		l0.5435,0.0454v0.0454c0.1349,0.1356,0.2257,0.2258,0.2711,0.3165c0,0.0448,0.0454,0.0901,0.0454,0.1356
		c1.4465,1.9001,2.8488,3.5736,4.2511,5.0201c0.4981,0.6331,1.1312,1.2661,1.7643,1.8538c0.4515,0.4073,1.0846,0.9054,1.9446,1.5839
		c1.3115,1.0404,2.6231,1.7643,3.8892,2.1703c0.4527,0.1816,0.7693,0.2712,0.995,0.3165c0.1816,0,0.3619,0,0.4981,0
		c0.5423-0.0454,1.357-0.2257,2.4869-0.4969c0.6785-0.0453,1.5385-0.4073,2.5335-1.0858c0.3165-0.1349,0.6785-0.4073,1.1299-0.7238
		c0.0908-0.0896,0.1362-0.135,0.1816-0.1803c0.0442,0,0.0442,0,0.0896-0.0454c0.227-0.2711,0.5432-0.6785,0.9051-1.222
		c0.1804-0.2258,0.3165-0.4061,0.4067-0.5423c0.0454-0.0454,0.0454-0.0454,0.0454-0.0454c0.0902-0.1349,0.181-0.3165,0.3165-0.5422
		c0.4067-0.7693,0.6785-1.3569,0.814-1.7189c0-0.0454,0-0.0454,0-0.0454c0.1356-0.6331,0.2717-1.3115,0.3165-1.9446
		c0.0902-0.6785,0.0902-1.3115,0.0902-1.99c0,0,0,0,0-0.0454c-0.135-1.7633-0.4975-3.3012-1.1306-4.6127
		c-0.0454-0.3619-0.2258-0.7692-0.5423-1.2667c-0.0908-0.1356-0.1362-0.2712-0.1816-0.3165c0-0.0448-0.0448-0.0448-0.0448-0.0902
		c-0.0901-0.0908-0.181-0.2264-0.3165-0.3619c-0.0901-0.1356-0.1356-0.181-0.181-0.2263c-0.0453-0.1356-0.181-0.1804-0.3162-0.2258
		c0,0,0,0-0.0454,0c-0.1362-0.0908-0.2712-0.1356-0.3619-0.181c-0.3165,0-0.5877,0.0454-0.8147,0.181
		c-0.0896,0.0902-0.1349,0.181-0.1803,0.3165v0.0454c-0.0908,0.0901-0.0908,0.181-0.1362,0.2257
		c-0.0442-0.0447-0.1349-0.0908-0.1803-0.1809c-0.0908-0.0902-0.1803-0.1356-0.2712-0.181c-0.0454,0-0.0454,0-0.0454,0
		c-0.1362-0.0902-0.2712-0.1356-0.3619-0.1356c-0.1362-0.0902-0.2711-0.181-0.4073-0.181c-0.135,0-0.2712,0-0.4074,0.0908
		c-0.0442,0-0.1349,0-0.1803,0.0454c-0.0908,0-0.1804,0.0448-0.2711,0.1356c-0.1816,0.181-0.2712,0.4067-0.3165,0.7233
		l-0.0454,0.5429c-0.0454,0-0.0454,0-0.0454,0c-0.0908-0.2711-0.3165-0.6331-0.5422-1.176
		c-0.2724-0.5422-0.4981-0.9496-0.5889-1.1759c-0.0442-0.0902-0.0896-0.181-0.1803-0.2264
		c-0.0908-0.0448-0.1804-0.1349-0.2712-0.2258v-0.1809c0.0454-0.0454,0.0908-0.0902,0.135-0.1356
		c0.0908-0.1362,0.1362-0.1809,0.1815-0.2263c0.0454-0.0448,0.0908-0.0448,0.0908-0.0908l0.5876-0.5877
		c0.0454-0.0448,0.0454-0.0448,0.0454-0.0448c1.4465-1.5833,3.0304-3.5285,4.7483-5.835c0.0454-0.0448,0.0902-0.0902,0.0902-0.135
		c0-0.046,0.0454-0.046,0.0908-0.0908c0.0454,0.2258,0.1356,0.4521,0.3165,0.6785c0.2258,0.3165,0.4975,0.4975,0.7239,0.4975
		c0.4073,0.0447,0.7238,0,0.9042-0.181l0.4975-0.4074c0.0454,0,0.0908-0.0453,0.0908-0.0901
		c0.0454-0.0902,0.1356-0.181,0.2257-0.3165c0.1362-0.1362,0.2264-0.2264,0.2718-0.3165c0.814-1.2214,1.809-2.9856,3.0297-5.3369
		c0-0.0454,0.0454-0.0902,0.0454-0.1362c0-0.1803,0-0.2705,0.0454-0.2705c0.0454-0.046,0.0454-0.0908,0.0908-0.1362
		c0.0447,0,0.0901,0,0.1349,0.0454c0,0,0.0908,0,0.1362,0.0448c0.0908,0.046,0.1356,0.0908,0.1803,0.0908
		c0.0908,0.0901,0.227,0.0901,0.3172,0.1356c0.2263,0,0.4521-0.0901,0.6785-0.2711c0.1356-0.0908,0.2711-0.2264,0.4975-0.4074
		c0.0453-0.0454,0.0453-0.0454,0.0901-0.1356c0.0902-0.1356,0.181-0.2263,0.3619-0.3613c0.0454,0,0.0454,0,0.0901,0
		c0.0908,0,0.1816,0,0.2264-0.046c0.0454,0,0.0454,0,0.0901,0.046c0.0908,0,0.1362,0.0448,0.1816,0.0448
		c0.8134,0.2712,2.8488,0.9502,4.2966,1.4471c0.1803,0.0908,0.3165,0.1362,0.4067,0.1362c0.0454,0.0448,0.0454,0.0448,0.0902,0.0448
		c0.0453,0,0.1362,0,0.227,0.0454c0.1349,0.0901,0.2258,0.1356,0.3613,0.1356l0.4067,0.0454c0.1362,0,0.2269,0,0.3619-0.0908
		c0.0908-0.0901,0.1816-0.1803,0.2264-0.2711c0.0453-0.0454,0.0901-0.181,0.0901-0.2717v-0.0448
		c0.0908-0.0908-0.7232-0.4975-0.7232-0.5883l0.2717,0.0454c0.1349,0,0.3165,0.0454,0.5876,0.1356
		c0.995,0.1816,1.7189,0.3165,2.1704,0.362c0.7239,0.0902,1.4029,0.0902,2.036,0l0.4521,0.0454
		c0.0448,0.0448,0.0902,0.0908,0.1356,0.181c0.0448,0,0.0448,0,0.0448,0.0448c0.046,0.0908,0.0908,0.2263,0.1359,0.2717
		c0.1815,0.6785,0.4527,1.3569,0.8146,2.1256c0.2258,0.4527,0.5423,1.1306,1.0404,2.0354V70.12c0,0,0,0,0,0.0448h0.0454
		l0.3165,0.5883c0.1803,0.4521,0.4515,0.6785,0.768,0.7238h0.2724c0.3607,0.0448,0.5877-0.1362,0.6772-0.4981c0,0,0,0,0.0454-0.0447
		c0.3165,0.8588,0.7692,1.809,1.4023,2.8948c0.6785,0.9944,1.4477,1.9446,2.3065,2.8942c0.5876,0.5876,1.4931,1.4023,2.7593,2.3519
		c0.2711,0.1803,0.4527,0.3619,0.5876,0.4521c0.0454,0.0454,0.135,0.0908,0.2258,0.0908c0,0,0,0,0.0454,0.0448
		c0.0908,0.0453,0.1815,0.0908,0.2711,0.0908c0.1362,0.1356,0.2724,0.181,0.362,0.181c0.1362,0,0.2724,0,0.4073-0.0908
		c0.1362-0.0448,0.2712-0.1356,0.362-0.2712c0.0454-0.0901,0.0908-0.181,0.0908-0.2711c0-0.046,0-0.1362,0-0.181
		c0.6785,0.6331,1.6735,1.5373,2.985,2.7132c0.3619,0.3619,0.6784,0.6337,0.8588,0.814c0.5876,0.7239,1.0858,1.2661,1.5385,1.6735
		c0.0896,0.1362,0.1803,0.3619,0.2711,0.6337c0.0454,0.0448,0.0454,0.1356,0.0454,0.2257
		c-0.0454,0.0454-0.0454,0.1356-0.0908,0.2264c-0.0454,0.0454-0.0454,0.0902-0.0908,0.181c0,0.0448-0.0453,0.1356-0.1803,0.2711
		c-0.0908,0.0908-0.1816,0.2264-0.2269,0.2712c-0.4969,0.6331-1.4023,1.4928-2.6231,2.6228c0,0.0466,0,0.0466-0.0454,0.0466
		c0,0,0,0.0442-0.0453,0.0442c-0.135,0.2258-0.3607,0.4527-0.6785,0.7238c-0.0896,0.0454-0.135,0.0908-0.1803,0.1362
		c-0.0454,0-0.0454,0.0454-0.0908,0.0908c-0.0896,0.1349-0.2712,0.3165-0.5877,0.5876c-0.0454,0.0454-0.0908,0.0454-0.0908,0.0896
		c-0.135,0.0908-0.2712,0.1815-0.4969,0.3619c-0.0454,0-0.0908,0-0.2258,0c-0.0908-0.0442-0.1362-0.0896-0.2269-0.1804
		c-0.0454-0.0454-0.0896-0.0908-0.135-0.1361c0,0-0.0454,0-0.0454-0.0454c-0.3165-0.1803-0.5422-0.2712-0.7238-0.3165
		c-0.2711-0.135-0.5876-0.1804-0.8134-0.2258c-0.2724,0-0.5435,0-0.7692,0.0454c-0.1362,0-0.2724,0-0.4527,0.0454
		c-0.1803,0-0.2712,0-0.3165,0c-0.0908,0-0.1362,0-0.2258,0.0454c0,0,0,0-0.0454,0c-0.0453,0-0.1803-0.0908-0.3619-0.1816
		c-0.0908-0.0895-0.2711-0.1804-0.4981-0.2711c-0.2258-0.1362-0.3607-0.2258-0.4061-0.2711
		c-0.0908-0.0454-0.1816-0.0454-0.227-0.0908c-0.4061-0.0453-0.7681,0-1.0392,0.0908c-0.227,0-0.5435,0.1349-0.8601,0.3619
		c0,0.0454-0.0453,0.0454-0.0453,0.0454c-0.4969,0.2711-0.8588,0.5423-1.0404,0.8588c-0.5423,0.6331-0.9042,1.1312-1.0845,1.5826
		c-0.4074,0.7692-0.6343,1.5373-0.6785,2.352l-0.1362,0.9949c0,0.0908,0,0.1362,0.0454,0.227c0,0.0442,0,0.0442,0.0454,0.0895
		c0.135,0.362,0.3165,0.6785,0.4527,0.8601c0.1803,0.4061,0.4061,0.6785,0.7681,0.9042c0.0908,0.135,0.2711,0.2712,0.5435,0.4515
		c0.0896,0.0466,0.1349,0.0908,0.1349,0.0908c0.0908,0.0454,0.1362,0.0908,0.2258,0.0908l1.2674,0.1361
		c0.0896,0,0.1349,0,0.2258-0.0454c0.0908,0,0.1803-0.0454,0.3619-0.0908c0.135,0,0.2712-0.0454,0.362-0.0454
		c0.135,0.0454,0.3165,0.1362,0.4969,0.2711c0.4981,0.3619,0.995,0.5877,1.4931,0.6343c0.7226,0.0896,1.2207,0.0896,1.5826,0
		c0,0,0.0454,0,0.0454-0.0466c0,0,0.0453,0,0.0896,0c0.0466,0,0.0908,0.0466,0.1815,0.0466
		c0.0909,0.0442,0.1816,0.0442,0.2258,0.0442c0.4527,0.2724,0.9054,0.4981,1.357,0.7238c0.0453,0,0.0908,0.0454,0.1362,0.0454
		c0.7693,0.0908,1.3569,0.0908,1.763,0.0454c0.2724,0,0.5435-0.0908,0.8147-0.3165c0.2711-0.0908,0.4969-0.2258,0.6784-0.4074
		c0.0454,0,0.0908-0.0453,0.0908-0.0908c0.0454-0.0442,0.0908-0.0908,0.1804-0.1349c0.0454-0.0454,0.0908-0.0908,0.1362-0.0908
		c0.0454,0,0.0454,0,0.0896,0.0454c0.0466,0.0454,0.1362,0.0454,0.1815,0.0454c1.1766,0.1349,1.99,0.2257,2.5777,0.2257
		c0.9509,0.0908,1.7643,0.0908,2.4881,0.0454c0.0453,0,0.1349,0,0.2258,0c0.7238-0.0454,1.2661-0.0908,1.628-0.0908
		c0.5889-0.0896,1.1312-0.1803,1.5827-0.3165h0.0454c0.0454-0.0454,0.1362-0.0454,0.3166-0.0908
		c0.4073-0.0454,0.6784-0.1349,0.9054-0.2257c0.4515-0.1362,1.0404-0.4515,1.763-0.8588c0.0908-0.0454,0.1816-0.0908,0.227-0.1362
		c0,0,0.0454,0,0.0454-0.0454c0.6331-0.4969,1.0846-0.9042,1.3115-1.1754c0.6785-0.8147,1.3557-1.7643,1.99-2.8046
		c0.406-0.6785,0.9496-1.6281,1.628-2.8942c0.2712-0.4981,0.4515-0.8588,0.5877-1.1311c0-0.0454,0.0454-0.0896,0.0454-0.135
		c0-0.0453,0.0454-0.0908,0.0454-0.1815c0.0896,0,0.135,0,0.1803-0.0454c0.1362,0.0908,0.227,0.1362,0.3165,0.1362
		c3.4377,1.6281,7.0104,2.985,10.7193,4.115c0.1362,0.0908,0.3619,0.1362,0.6331,0.227c0.1362,0.0454,0.2711,0.0896,0.3619,0.1362
		c0.0908,0.0896,0.2258,0.1349,0.362,0.2258c0,0,0,0.0453,0,0.0908c0.0454,0.0896,0.0454,0.1349,0.0454,0.1803
		c0,0.1816,0.0454,0.4515,0.135,0.7239c0.0453,0.0908,0.0908,0.1349,0.0908,0.1803c0.0454,0.0908,0.0454,0.1362,0.0908,0.1815
		c0.0454,0,0.0908,0.0908,0.135,0.135c0.0908,0.1362,0.1815,0.227,0.227,0.2724c0.0454,0.0895,0.0896,0.0895,0.1349,0.1349
		c0.0908,0.0908,0.227,0.1362,0.3619,0.1816c0.1362,0.0896,0.2258,0.1349,0.3165,0.1804c0.2724,0.1362,0.6331,0.2711,1.1766,0.3165
		c0.0442,0,0.0908,0,0.1349,0c0.1816-0.0454,0.362-0.0908,0.6331-0.1803c0.227-0.0454,0.4073-0.0908,0.5435-0.1362h0.0442
		c0.3631-0.0908,0.86-0.3165,1.4477-0.6331c0.0453,0,0.0453,0,0.0908-0.0454l2.3065-1.8992
		c0.5435-0.4074,0.9042-0.8601,1.1311-1.3569c0-0.0454,0.0454-0.0908,0.0896-0.1362c0.1816-0.4515,0.3178-0.8134,0.362-1.1299
		c0-0.2712,0-0.5889-0.0908-0.8147c0-0.2711-0.0896-0.5423-0.3153-0.8134v-0.0454c-0.0454-0.0453-0.0908-0.0908-0.1816-0.1815
		c-0.0453,0-0.0908-0.0454-0.0908-0.0454c0-0.0908-0.0442-0.1803-0.0908-0.2258c0-0.0454,0-0.0908,0-0.2258
		c0-0.1362,0-0.3165-0.0896-0.4981c-0.0454-0.1362-0.1362-0.2712-0.1803-0.3619c-0.0908-0.2258-0.227-0.4515-0.4073-0.6785
		c-0.0454-0.0454-0.0908-0.0896-0.1362-0.1349c-0.1362-0.0908-0.3165-0.1362-0.5423-0.2261
		c-0.0908-0.046-0.1816-0.0908-0.2724-0.1362c-0.2258-0.1356-0.3607-0.3165-0.4515-0.5429c0-0.0902-0.0908-0.1356-0.1815-0.2264
		c-0.0896-0.0448-0.2258-0.1349-0.4061-0.2711c-0.1362-0.0902-0.2712-0.1356-0.3619-0.2258
		c-0.1362-0.1356-0.3165-0.181-0.5435-0.2264c-0.1803,0-0.3607,0-0.5423,0.0454c-0.1362,0-0.2711,0.0454-0.4527,0.0902
		c-0.0908,0-0.1349,0-0.1349,0c-0.1362,0-0.2724-0.0902-0.362-0.2258c-0.0454,0-0.0908-0.0454-0.0908-0.0454
		c-0.0454-0.0454-0.135-0.0901-0.2258-0.2263c-0.1362-0.1804-0.2724-0.2712-0.362-0.3613
		c-0.3165-0.4074-0.6331-0.8601-0.9042-1.4023c-0.8147-2.0354-1.5839-4.4775-2.3065-7.2815
		c-0.1362-0.4975-0.2724-0.9049-0.5435-1.1766c-0.1803-0.4067-0.4073-0.7233-0.768-0.9042
		c-0.0466-0.0908-0.1362-0.1356-0.2269-0.2712c-0.3619-0.3165-0.6331-0.4975-0.9042-0.6331
		c-0.3165-0.1356-0.8147-0.2717-1.4023-0.3165c-0.0454,0-0.0454,0-0.0908,0c-0.8588,0.0902-1.7631,0.2258-2.7581,0.4067
		c-0.1815,0-0.2711-0.0448-0.3177-0.0448l-0.0442-0.0454c-0.0908-0.0454-0.1362-0.0908-0.2724-0.1816
		c-0.0896-0.0901-0.2258-0.1803-0.3153-0.2705c-0.0908-0.227-0.3165-0.4975-0.5889-0.8595c-0.6331-0.86-1.3115-2.1709-2.0795-3.98
		c-0.0454-0.1362-0.0908-0.2264-0.1362-0.3165c-0.1362-0.3172-0.2712-0.7245-0.362-1.3122l0.0454-0.4975
		c0-0.0454,0.0453-0.0901,0.1362-0.2263c0-0.0448,0.0442-0.0902,0.0442-0.1356c0.1362-0.0453,0.2724-0.1356,0.4073-0.2257
		c0.0908-0.0908,0.1816-0.181,0.2258-0.181c0.0453,0,0.0908-0.0454,0.1362-0.0908c0.0908-0.0448,0.2258-0.181,0.4527-0.316
		c0.4061-0.3172,0.6785-0.5429,0.8588-0.7238c0.0908-0.1356,0.2711-0.4074,0.4969-0.7239c0.227-0.2711,0.4073-0.4975,0.4981-0.6331
		c0,0,0.0453,0,0.0453-0.0454c0.9496-1.4925,1.6281-2.8948,2.0354-4.161c0-0.0454,0-0.0901,0-0.1356
		c0.0454-0.0901,0.0454-0.181,0.0454-0.2263c0,0.0454,0.0454,0.0454,0.0454,0.0454c0.0453,0.0908,0.0896,0.1356,0.1349,0.1356
		c0,0.0454,0,0.1356,0,0.181c0.0908,0.181,0.227,0.4074,0.3619,0.5877c0,0.1362,0.0908,0.2263,0.1816,0.3619
		c0.0895,0.0908,0.1803,0.1809,0.3165,0.2263c0.0895,0.0454,0.1803,0.0902,0.3165,0.1356c0.0896,0,0.1803-0.0454,0.3165-0.0454
		c0.0908,0,0.1803-0.0448,0.2711-0.0902c0.135-0.0908,0.2258-0.181,0.3165-0.3619c0.0454-0.0454,0.0454-0.0454,0.0454-0.0454
		c0.0454-0.0448,0.0454-0.0448,0.0454-0.0902c0.0442-0.0448,0.0895-0.0908,0.0895-0.1356l0.227-0.5429
		c0.0908-0.181,0.2257-0.4975,0.3607-0.9042c0.5889-1.3576,0.995-2.3973,1.222-3.0758c0.4073-1.176,0.6331-2.171,0.7238-3.1206
		c0.0908-0.5429,0.2712-1.4023,0.5423-2.5777l0.0454-0.0454v-0.0454c0-0.0454,0-0.0908,0-0.0908h0.0454l0.3165,0.4074
		c0.1803,0.3165,0.4073,0.6785,0.6784,1.1306c0.3165,0.4975,0.5423,0.8594,0.6331,1.0851
		c1.5373,3.9352,2.6685,8.5029,3.3923,13.6141c0.362,2.7138,1.0858,5.2007,2.125,7.5072c0.0453,0.046,0.0453,0.0908,0.0908,0.1362
		c0.0454,0,0.0454,0.0902,0.1362,0.2264c0.0908,0.1349,0.1804,0.2711,0.2258,0.3613c0.1803,0.181,0.3165,0.3172,0.4969,0.4073
		c0.0908,0.1356,0.227,0.181,0.4073,0.2264c0.1816,0,0.3165-0.0454,0.4527-0.1816c0,0,0,0,0.0454-0.0448
		c0.0453-0.0454,0.1349-0.0901,0.1803-0.181c0.0454-0.0454,0.0454-0.0454,0.0454-0.0454c0.1361-0.0908,0.1803-0.181,0.1803-0.3165
		c0.0466-0.3165,0-0.5423-0.0442-0.7239l0.135-1.4471v-0.1356c0.0908,0.0454,0.1362,0.0454,0.1816,0.0902
		c0.0441,0,0.0908,0.0453,0.1349,0.1356c0,0,0,0,0,0.0454c0.0908,0.0908,0.227,0.2264,0.362,0.4074
		c2.3519,2.6231,4.2057,4.613,5.608,5.9246v0.0454c0.4073,0.3165,0.86,0.7232,1.4023,1.2207
		c0.0454,0.046,0.0454,0.046,0.0908,0.0908c0.2257,0.2257,0.4073,0.3619,0.5876,0.4073l0.4527,0.0454
		c0.135,0,0.2711-0.0454,0.362-0.0908c0.0908-0.0901,0.1349-0.2263,0.1803-0.3619l0.0454-0.4074
		c0-0.2711-0.0454-0.4969-0.135-0.6784l-0.0908-0.3166c0-0.0447,0-0.0447,0-0.0447c0-0.0454,0-0.0902-0.0454-0.0902
		c0-0.046,0-0.0908-0.0454-0.1816l0.0454,0.0454c0.8588,1.0404,1.4919,1.8545,1.99,2.4875
		c0.0454,0.0453,0.0454,0.0453,0.0896,0.0901c1.6747,1.5379,3.4831,3.0304,5.4731,4.4327c1.4931,1.0858,3.3015,2.2611,5.4731,3.573
		c0.0454,0.0453,0.0896,0.0908,0.1804,0.1361c0.2711,0.2258,0.5435,0.3607,0.8146,0.4515c0.135,0.0908,0.3165,0.1816,0.5423,0.1816
		c0.362,0.0442,0.5423-0.0908,0.6331-0.362c0.0908-0.0454,0.1362-0.1362,0.1362-0.2712c0-0.0908,0-0.1815-0.0454-0.2714
		c0-0.046,0-0.0908-0.0454-0.1362c0-0.0901-0.0454-0.181-0.1362-0.3165c0-0.0454,0-0.0901-0.0442-0.0901
		c0-0.1362,0-0.2264-0.0908-0.3165c-0.1362-0.181-0.2257-0.3172-0.3165-0.4975c-0.1362-0.3165-0.2711-0.7692-0.3619-1.4925
		c0-0.0908-0.0454-0.1362-0.0908-0.2264c-0.0453,0-0.0453-0.0454-0.0453-0.0454c0.0908,0,0.1815,0.0454,0.3165,0.1356
		c0.0453,0,0.0908,0.0454,0.0908,0.0454c0.362,0.1356,0.9496,0.4067,1.8097,0.8594c0.0442,0,0.0442,0.0454,0.0895,0.0454
		c0.7693,0.6331,1.3115,1.1299,1.6735,1.4471c0.5889,0.5423,1.0858,1.0855,1.5385,1.6278c0.0896,0.0908,0.2258,0.2258,0.4074,0.4073
		c0.1349,0.1816,0.2711,0.2712,0.3607,0.3619c0.1815,0.2258,0.3165,0.3619,0.4981,0.4515c0.0908,0.0908,0.2711,0.1815,0.4073,0.1815
		c0.1803,0.0454,0.3165,0,0.4515-0.0908c0.1362-0.0442,0.2712-0.0908,0.3619-0.2258c0.0908-0.0908,0.1816-0.1815,0.2258-0.3165
		c0.1362,0.1816,0.2724,0.3165,0.4073,0.3619c0.3165,0.3165,0.6785,0.6785,1.0858,1.1312c0,0.0442,0,0.0442,0.0454,0.0895
		c0.4527,0.4527,0.9496,1.1766,1.4919,2.1716c0,0,0.0454,0.0442,0.0454,0.0908l0.4073,0.4515
		c0.0454,0.0908,0.1816,0.1362,0.3165,0.1803c0.1816,0,0.4074-0.0442,0.5877-0.2258c0.0453,0,0.0453,0,0.0908,0
		c0.1362-0.135,0.2258-0.3165,0.2711-0.5423c0.1362-0.1362,0.1816-0.3165,0.227-0.5435c0.0442-0.1803,0.0895-0.4061,0.1349-0.6331
		c0-0.135,0-0.3165,0-0.5877c0.0454-0.2258,0.0454-0.4073,0.0454-0.5423V89.884l0.0454,0.0454c0,0,0.0454,0.0454,0.0454,0.0908
		c0.1349,0.135,0.1803,0.2712,0.2258,0.4074c0.0453,0.1349,0.1362,0.2711,0.2711,0.4969c0.1362,0.1816,0.1816,0.3165,0.2258,0.4073
		c0.0466,0.0908,0.1362,0.1803,0.2269,0.2712c0.2258,0.0908,0.4074,0.2257,0.4969,0.3619c0.0908,0.0908,0.1816,0.135,0.3178,0.135
		c0,0.0454,0.0442,0.0454,0.0442,0.0454c0.1362,0.0454,0.2724,0.0908,0.362,0.0908c0.1362,0,0.2711,0,0.4073-0.0908
		c0.135,0,0.3165-0.0895,0.4981-0.2257c0.0442-0.0454,0.0442-0.0454,0.0442-0.0454c0.1362-0.0908,0.1816-0.1804,0.227-0.3165
		c0-0.0454,0-0.0908,0.0454-0.1803c0.0442-0.0908,0.0896-0.1816,0.0896-0.2711c0.227-0.3166,0.3619-0.6343,0.4073-0.9055
		c0.0908-0.3619,0.1816-0.7238,0.2258-1.0845c0.0454-0.3631,0.0454-0.7239,0-1.1312l0.0454-0.4981c0-0.0454,0-0.0454,0-0.0454
		c0.0454,0,0.0908,0.0454,0.1362,0.0454c0.0454,0.0454,0.0908,0.0908,0.135,0.1362c0.0454,0.0908,0.1362,0.1816,0.1816,0.2258
		c0.1803,0.2258,0.4073,0.5435,0.7692,0.9509c0.2711,0.3607,0.4969,0.6331,0.6772,0.8588c0.0454,0.0908,0.0908,0.2257,0.1362,0.4073
		c0.0908,0.2258,0.1362,0.4061,0.1362,0.4969c0,0.0454,0,0.0908,0,0.1816c0.0442,0.0454,0.0442,0.0896,0.0442,0.1803
		c0.2269,0.8588,0.3619,1.5385,0.4073,1.99c0,0.2257,0.0454,0.4073,0.0908,0.5876c0.0453,0.3165,0.2711,0.4527,0.7238,0.4981
		c0.1362,0.0453,0.2258,0,0.362-0.0908l0.3165-0.2711c0.0896-0.0454,0.1362-0.1804,0.1362-0.3165
		c0.0442-0.0454,0.0896-0.0908,0.1803-0.1816c0-0.0453,0.0454-0.0453,0.0454-0.0895c0.0441-0.0454,0.0908-0.0908,0.1803-0.1816
		c0.1815-0.2258,0.3165-0.4061,0.4073-0.5423c0.0908-0.1816,0.1816-0.4073,0.2258-0.6331c0.3165-0.5435,0.5435-1.1765,0.6331-1.8992
		c0.0454-0.4981,0.0454-0.8601,0.0454-1.0858c0-0.0453,0-0.0908,0-0.1362c0.1362,0.4528,0.2723,1.0858,0.4073,1.8992
		c0.0454,0.4073,0.0908,0.7238,0.1362,0.9508c0,0.0442,0,0.0442,0.0454,0.0895c0,0.0454,0,0.1816,0.0442,0.3619
		c0,0.1816,0.0453,0.3165,0.0453,0.4527c-0.0895,0.1803-0.1349,0.3619-0.1803,0.5423v0.4073c-0.0453,0.135,0,0.2258,0.0908,0.362
		c0.0895,0.0896,0.1803,0.1362,0.3165,0.1803h0.2711c0.2258,0.0454,0.4515-0.0442,0.6331-0.2711
		c0-0.0454,0.0454-0.0454,0.0454-0.0454c0.0908-0.0908,0.1349-0.2258,0.1803-0.3165c0.0908,0,0.1816,0.0454,0.2711,0.0454
		c0.3165,0.0453,0.5877-0.0454,0.7692-0.1803h0.3165c0.1362,0.0442,0.2712,0,0.3619-0.0908
		c0.0908-0.0453,0.135-0.1362,0.1816-0.2258c0-0.0454,0.0442-0.0908,0.0896-0.1361c0.0453,0,0.0453-0.0454,0.0908-0.0454
		c0,0,0,0,0-0.0454c0.2258-0.1349,0.3619-0.3165,0.4969-0.4969c0.2724-0.1816,0.5889-0.4527,0.9509-0.9042
		c0.1803-0.227,0.3619-0.4074,0.4515-0.4981c0.0454,0,0.0454-0.0454,0.0454-0.0454c0.0908-0.1349,0.2711-0.3165,0.5423-0.5423
		c0.2724-0.2711,0.4527-0.4981,0.5889-0.6331l0.0442-0.0453c0.1815-0.2724,0.4073-0.6785,0.7692-1.2208
		c0.0908-0.1816,0.1816-0.3165,0.2258-0.4073c0.0453,0,0.0453-0.0454,0.0453-0.0454c1.1766-2.6687,1.8551-4.9299,2.0354-6.7843
		c0.3165-3.0304,0.1815-6.5129-0.362-10.4475c-0.4515-3.6635-1.2661-6.965-2.4869-9.8145
		c-1.0404-2.2617-2.3065-4.2971-3.6634-6.1509c-0.6331-0.9049-1.357-1.8545-2.2611-2.8495
		c-0.5435-0.6337-1.4023-1.4925-2.4881-2.6684c-0.0908-0.0902-0.1349-0.1356-0.1349-0.181c-0.0454,0-0.0908-0.0454-0.1362-0.0454
		c-0.0454-0.0454-0.1362-0.1356-0.2711-0.2258c-0.0908-0.0908-0.2258-0.1809-0.3166-0.2711c0,0,0,0-0.0454,0
		c0.1803-0.1816,0.3165-0.4073,0.3165-0.6785c0.0454-0.2263-0.0454-0.4073-0.1803-0.5883c-0.0908-0.0902-0.1816-0.1356-0.2724-0.181
		c-0.0896-0.0908-0.135-0.1356-0.2258-0.2258c-0.1362-0.0908-0.1803-0.1362-0.2269-0.1815
		c-1.4011-1.3569-2.7127-2.4421-3.8892-3.1654c-8.3219-5.6087-17.3665-10.0408-27.1815-13.2969c0,0-0.0454,0-0.0454-0.0454h-0.0453
		c-0.0442,0-0.0442-0.0454-0.0896-0.0454h0.0896l0.7238,0.0908c0.1362,0,0.2711,0,0.4073-0.0908c0.0454,0,0.0454,0,0.0454,0
		c0.135,0,0.2258-0.0454,0.3165-0.0908c0.1362-0.135,0.1803-0.1803,0.2258-0.2712c0.0908-0.0908,0.1362-0.1809,0.1362-0.3165
		c0-0.2257-0.0454-0.4073-0.1816-0.5876c-0.0908-0.0908-0.1803-0.1816-0.3165-0.2264c-0.0454-0.0454-0.0908-0.0901-0.1804-0.1356
		c-0.0454,0-0.0454-0.0454-0.0454-0.0454c-0.0908-0.0908-0.1362-0.1356-0.2711-0.181c-0.1816-0.0448-0.5435-0.2264-0.995-0.4975
		c-0.3165-0.1356-0.5435-0.2712-0.7238-0.3619c-5.6535-2.8488-11.9854-4.975-18.8608-6.2865
		c-2.1704-0.4073-4.4769-1.2661-6.965-2.5323c-1.4919-0.8146-3.753-2.1716-6.738-4.1161c-0.1362-0.0908-0.2257-0.1356-0.3165-0.181
		c-3.845-2.4875-8.5477-4.7032-14.1115-6.6485c-7.1012-2.3065-14.8342-3.8898-23.2018-4.7486
		c-1.2213-0.1362-2.4421-0.2712-3.7082-0.3619c0.2712,0,0.5423-0.0454,0.9042-0.0908c0.181-0.0448,0.3165-0.0448,0.4073-0.0902
		c0.1803,0.0454,0.3165,0,0.4975-0.0448c0.0448,0,0.0448-0.0454,0.0448-0.0454c0.1362,0,0.2263,0,0.3165-0.0908
		c0.0908-0.0908,0.1362-0.181,0.1816-0.2711c0.0454-0.0908,0.0901-0.181,0.0901-0.2712c0-0.1362,0-0.2717-0.0901-0.3619
		c-0.0908-0.1816-0.2264-0.3165-0.5429-0.3619c-0.0454-0.0454-0.1356-0.0908-0.2717-0.0908c-0.0454,0-0.1804,0-0.2712,0h-0.0454
		c-0.2712,0-0.6785-0.0454-1.2208-0.1356c-0.5883-0.0447-0.995-0.0901-1.2661-0.1356c-1.3122-0.1362-2.4427-0.181-3.3469-0.2263
		c-1.1766-0.0448-2.3065,0-3.347,0.1355c-9.5883,1.4477-20.4425,3.98-32.5187,7.5987c-4.84,1.4471-10.3119,3.2113-16.3727,5.2461
		c-3.6634,1.2668-9.1353,3.1206-16.4622,5.6989c-0.5889,0.181-0.995,0.3619-1.3115,0.4521c-0.0908,0.0454-0.227,0.0908-0.4073,0.181
		c-0.0908,0.0454-0.1816,0.0902-0.2258,0.1356l-0.4073-0.0454c-0.0454-0.0448-0.1362-0.135-0.227-0.3165
		c-0.0442,0-0.0442,0-0.0442-0.0448l-0.0454-0.0454l-0.3619-0.2717c-0.4074-0.5423-0.7692-0.9042-1.0404-1.1299
		c-0.0454,0-0.0454-0.0454-0.0454-0.0454c-0.0454,0-0.0908-0.0454-0.1803-0.0908c-0.4074-0.3165-0.8147-0.5423-1.1766-0.6331
		c0-0.0454-0.0454-0.0454-0.0908-0.0454c-0.0442,0-0.1803-0.0454-0.3165-0.0902c-0.2258-0.0901-0.3619-0.1356-0.4969-0.1356
		c-0.2258,0-0.4981,0.0454-0.8147,0.1803c-0.0896,0-0.135,0.0454-0.135,0.0454c-0.3619,0.1362-0.5889,0.3165-0.8146,0.5883
		c-0.135,0.0902-0.2712,0.181-0.4074,0.3613c-0.0896,0.1816-0.1803,0.3619-0.2258,0.5435
		c-0.2711,0.7233-0.4073,1.3115-0.4527,1.7637l-0.0895,0.814c0,0.1356-0.0454,0.2257-0.0454,0.2711
		c-0.0454,0.0454-0.0908,0.0908-0.0908,0.1362c-0.135-0.0454-0.2712,0-0.3619,0.0902c0,0-0.0454,0-0.0908,0c0,0,0,0-0.0442,0
		l-4.9309-0.2264c-0.0442,0-0.0442,0-0.0895,0c-0.4074,0-0.8601,0.0454-1.357,0.181c-0.2711,0.0901-0.7238,0.2263-1.3115,0.4067
		c-0.1362,0.0454-0.2711,0.0908-0.3619,0.1362c-0.4527,0.1356-1.0858,0.4522-1.8992,0.9042
		c-0.3177,0.1816-0.5435,0.3165-0.7238,0.4073c-0.5435,0.181-0.8601,0.4975-0.8601,0.9042c-0.0454,0.0908,0,0.2263,0.0454,0.3165
		c0,0.0908,0,0.1816,0.0454,0.3172c0.0454,0.0901,0.0908,0.1356,0.1803,0.2263c0.0454,0.0902,0.1362,0.1804,0.2724,0.2258
		c0.0454,0,0.0454,0,0.0895,0.0454c0,0,0,0-0.0442,0c-0.0454,0.0454-0.1362,0.0901-0.227,0.1356
		c-0.6331,0.3619-1.0858,0.6785-1.357,0.9048c0,0,0,0-0.0454,0c-0.135,0.135-0.3165,0.3619-0.5877,0.5877
		c-0.5876,0.5422-0.995,0.9949-1.3115,1.3569c-0.0908,0.0902-0.1349,0.1803-0.2257,0.2712
		c-0.0454,0.0454-0.0454,0.0908-0.0454,0.0908c-0.1362,0.0901-0.1816,0.1803-0.2258,0.3165v0.4521
		c-0.0454,0.2717,0.0442,0.4975,0.3165,0.5883c0.0896,0.0448,0.135,0.0902,0.2258,0.0902
		c-0.0454,0.0448-0.0908,0.0902-0.1803,0.0902c-0.0908,0.0908-0.2724,0.1362-0.4527,0.2717
		c-0.1362,0.0901-0.2711,0.181-0.3619,0.181c0,0,0,0-0.0454,0.0453c-1.8085,0.9042-3.2561,1.6281-4.2966,2.1704
		c-1.5827,0.8594-2.985,1.7188-4.2511,2.5329c-3.98,2.6685-7.5526,5.5179-10.6738,8.5483
		c-1.5372,1.4919-3.0304,3.1654-4.4781,4.9296c-1.1754,1.4925-2.3961,3.1659-3.753,5.1112
		c-0.0454,0.0902-0.1362,0.2258-0.2724,0.4067c-0.7226,1.0397-1.2207,1.809-1.5372,2.3513
		c-0.4969,0.8601-0.8588,1.6741-1.0404,2.4427C1.0607,59.31,0.9698,59.6271,0.9245,60.0792z M143.3012,91.241l-0.0453,0.4073
		c-0.0454,0.0908-0.0908,0.135-0.1362,0.2258c-0.0442,0.0908-0.0896,0.1362-0.0896,0.1816
		c-0.0454,0.0442-0.0908,0.0895-0.1362,0.1349c0,0.0908-0.0454,0.1362-0.0908,0.2258c-0.0442,0.0466-0.0896,0.0908-0.135,0.227
		c-0.0453,0.0454-0.0908,0.135-0.0908,0.1803c-0.0454,0.0454-0.0908,0.1362-0.0908,0.1816c-0.0896,0.1349-0.135,0.2711-0.135,0.4061
		c-0.0908,0.4073-0.1816,0.86-0.227,1.2674c-0.0442,0.4073-0.0442,0.8588-0.0442,1.2661v0.0454c0,0.0454,0,0.0454,0,0.0908
		c0,0.0442,0,0.0442-0.0454,0.0896c0,0.0908-0.0454,0.1361-0.1362,0.227c0,0.0896-0.0454,0.1349-0.0908,0.2258
		c0,0,0,0-0.0442,0.0453c0,0-0.0454,0-0.0908,0.0454c-0.0453,0-0.0908,0.0454-0.0908,0.0896
		c-0.0908,0.0453-0.1803,0.0453-0.3165,0.0908c-0.0908,0-0.1803,0-0.3165-0.0454c-0.0454,0-0.0908,0-0.1803-0.0453
		c-0.0466,0-0.0908,0-0.1362-0.0442c-0.0908-0.0454-0.1362-0.0454-0.1816-0.0454c-0.0442-0.0454-0.1349-0.0454-0.1804-0.0454
		c0,0,0,0,0-0.0453c-0.0908-0.0908-0.1803-0.1804-0.1803-0.2258c-0.0908-0.1362-0.1362-0.227-0.1816-0.3619
		c-0.1349-0.1362-0.2257-0.4073-0.3619-0.7692c0-0.0454,0-0.0908,0-0.1362c0-0.0442,0-0.0896,0-0.1349c0-0.0454,0-0.1362,0-0.1362
		c0-0.0896,0-0.1362,0-0.1804c0-0.1362,0.0454-0.2724,0.0908-0.4074c0.0454-0.1362,0.0454-0.2258,0.0454-0.3165
		c0-0.1362,0.0442-0.227,0.0442-0.3165c0.0466-0.227,0.0908-0.4527,0.1815-0.6331c0.0454-0.0908,0.135-0.227,0.2258-0.3619
		c0.0908-0.1362,0.1362-0.227,0.1816-0.2711c0.0453-0.1362,0.1349-0.1816,0.1803-0.2724c0.1362-0.1803,0.2724-0.3607,0.4527-0.5423
		c0.0896-0.1349,0.1803-0.2711,0.3165-0.4073c0.1362-0.0896,0.3165-0.1803,0.4527-0.2258c0.0896-0.135,0.1804-0.2258,0.3165-0.3165
		c0.0454-0.0454,0.0896-0.0454,0.1803-0.0454c0.0454-0.0454,0.0908-0.0454,0.1362-0.0454l0.5423,0.0908h0.0454
		c0.0908,0.0454,0.2257,0.1815,0.2711,0.3165c0.0454,0.0454,0.0454,0.1362,0.0908,0.1816
		C143.3012,91.1502,143.3012,91.1955,143.3012,91.241z M147.1904,92.3268c0,0.0454-0.0453,0.0896-0.0453,0.0896
		c-0.0454,0.0908-0.0896,0.227-0.135,0.362c-0.0908,0.1362-0.1815,0.2724-0.227,0.4981c-0.0908,0.0908-0.1349,0.2712-0.2258,0.4981
		c-0.0453,0.0896-0.0908,0.1803-0.1349,0.2258c-0.0908,0.3619-0.1362,0.7226-0.1816,1.0404
		c-0.0453,0.5423-0.0453,1.0404,0.0908,1.4919c-0.0453,0.0908-0.0453,0.1816-0.0453,0.227c0,0.0895,0,0.1349-0.0454,0.2257
		c-0.0453,0.135-0.0908,0.2712-0.1362,0.4074c-0.0896,0.0442-0.2258,0.1349-0.3607,0.1803
		c-0.1362,0.0454-0.2724,0.0454-0.4073,0.0454c-0.0454,0-0.0908,0.0454-0.1362,0.0454c0,0.0454-0.0454,0.0454-0.1362,0.0454
		c0,0-0.0896,0-0.135,0c-0.0453,0-0.0908,0-0.1815,0c-0.135-0.0454-0.2258-0.0454-0.3153-0.0454
		c-0.1362-0.0454-0.2724-0.1362-0.4073-0.1816c-0.0908-0.0895-0.227-0.1803-0.3619-0.3165
		c-0.0908-0.0895-0.1816-0.2257-0.2711-0.3165c-0.0908-0.1349-0.1816-0.2711-0.2724-0.4515
		c-0.0442-0.0908-0.0896-0.227-0.1803-0.4074c0-0.0454-0.0454-0.0454-0.0454-0.0908c0-0.0908-0.0454-0.1803-0.0454-0.2711
		c0-0.0454,0-0.1362-0.0453-0.2258c0-0.1362,0-0.227,0-0.2724c-0.0442-0.0896-0.0442-0.1803-0.0896-0.2258v-0.0454
		c0.0454-0.1804,0.0896-0.3619,0.1803-0.5877c0.0454-0.1803,0.1362-0.3619,0.2258-0.4969c0-0.0466,0.0454-0.0908,0.0454-0.1362
		c0.0454-0.1804,0.1362-0.2711,0.1362-0.362c0.0908-0.1362,0.135-0.2711,0.1803-0.4073c0.1362-0.2711,0.3165-0.4969,0.5435-0.7239
		c0-0.0454,0.0442-0.0895,0.0442-0.1349c0.1362-0.1362,0.227-0.2711,0.2724-0.3165c0.0908-0.1362,0.2258-0.2269,0.3165-0.3165
		c0.0454-0.0454,0.0454-0.0908,0.1349-0.1362c0.0454-0.0454,0.0454-0.0454,0.0908-0.0908c0.0453-0.0442,0.0908-0.0442,0.0908-0.0896
		c0.1349-0.0454,0.2258-0.0908,0.3165-0.0908c0.1362-0.0454,0.2711-0.0908,0.362-0.0908c0.0441,0,0.0908,0,0.1803,0
		c0.0453,0,0.0908,0,0.1815,0.0454c0.0896,0,0.135,0,0.1804,0.0454c0.0453,0,0.0908,0,0.1803,0.0454
		c0.0466,0.0454,0.0908,0.0454,0.1362,0.0908c0.0908,0,0.1362,0.0442,0.227,0.0442c0,0.0453,0.0442,0.0908,0.0896,0.1362
		c0.1362,0.1362,0.227,0.2711,0.2711,0.3165c0.0454,0.0453,0.0454,0.0908,0.0908,0.1362c0,0.0442,0,0.0895,0,0.1349
		s0,0.0908,0,0.1362c0,0.0454,0,0.0896,0,0.1803C147.1904,92.236,147.1904,92.2813,147.1904,92.3268z M169.9404,76.6776
		c0-0.0454,0.0454-0.1356,0.0908-0.1803c0-0.046,0-0.046,0-0.0908c0-0.0454,0-0.0454,0-0.0908
		c0.0442-0.0453,0.0895-0.0901,0.1803-0.0901c0.0908-0.0908,0.1803-0.1356,0.2257-0.1356c0.0908-0.0908,0.1816-0.0908,0.227-0.0908
		c0.0896,0,0.1349,0,0.2258,0c0.0454,0,0.0908-0.0454,0.1361-0.0454c0.0896,0,0.0896-0.0448,0.135-0.0448
		c0.0454,0,0.0454,0,0.0908,0c0,0,0.0454-0.0454,0.0908-0.0908c0,0,0-0.0448,0.0442-0.0902
		c0.0453-0.0454,0.0453-0.0908,0.0453-0.0908c0.0454-0.0448,0.0908-0.0902,0.0908-0.0902c0-0.0448,0-0.0908,0-0.0908
		c0-0.0448,0-0.0902-0.0454-0.1356c0-0.0448,0-0.0902,0-0.0902c-0.0454-0.0454-0.0454-0.0908-0.0454-0.1356
		c0-0.0454-0.0453-0.0908-0.0895-0.1356c-0.1362-0.1362-0.227-0.2264-0.2724-0.3165c-0.0896-0.0908-0.135-0.181-0.135-0.2264
		c-0.0908-0.0454-0.0908-0.0908-0.1362-0.181c-0.0453-0.0453-0.0453-0.0901-0.0453-0.1356
		c-0.0454-0.0908-0.0454-0.1356-0.0454-0.2264l0.0908-0.6784c0-0.0448,0-0.0448,0-0.0448c0.1362-0.2717,0.2269-0.4527,0.2712-0.5883
		c0.0908-0.2258,0.1815-0.4527,0.2724-0.6331c0.0895-0.0454,0.1349-0.0901,0.1349-0.1809c0.0454-0.0454,0.0454-0.0908,0.0454-0.0908
		c0-0.0453,0-0.0901,0-0.1356c0.0908-0.0448,0.1362-0.1356,0.1362-0.181c0-0.0454,0-0.1356-0.0908-0.2263h-0.0908
		c-0.0454,0.046-0.0908,0.0908-0.1803,0.1362c-0.0454,0-0.0908,0-0.0908,0.0448l-0.0454,0.0454c0,0.0454,0,0.0454,0,0.0454
		c-0.0908,0.0908-0.1803,0.1356-0.2258,0.181c-0.0454,0.0448-0.0908,0.1356-0.0908,0.181c0,0.0908-0.0454,0.1356-0.0454,0.2257
		c0,0.0454-0.0453,0.0908-0.0908,0.1356c0,0.046-0.0442,0.0908-0.0442,0.0908c0,0.0454,0,0.0901,0,0.0901
		c-0.0454,0.1362-0.0908,0.2718-0.1362,0.3626c-0.0454,0-0.0908,0.0448-0.1362,0.0448c0,0-0.0442,0.0454-0.0896,0h-0.1362
		c-0.0908-0.0908-0.1349-0.1356-0.1349-0.2258c0-0.0454,0-0.0908,0-0.1356c0,0,0-0.046,0-0.0908c0-0.0454,0-0.0902,0-0.1362
		c0,0,0.0442-0.0448,0.0442-0.0902c0.0453-0.0902,0.0908-0.1356,0.1362-0.1803l0.4073-0.9502c0-0.0448,0-0.0908,0-0.1356
		c0.0454-0.0454,0.0454-0.0454,0.0896-0.0908c0.0454-0.0453,0.0454-0.0901,0.0454-0.0901c0.0453-0.0454,0.0453-0.0908,0.0453-0.0908
		c0.0454-0.0902,0.0908-0.181,0.1362-0.2258c0.0454,0,0.0908-0.0454,0.1803-0.0908c0.0454,0,0.0454-0.0448,0.0908-0.0448
		l0.0453-0.0454c0,0,0.0454-0.0454,0.0454,0c0.0454,0,0.0896,0,0.0896,0c0.0453,0,0.0908,0,0.0908,0
		c0.0908,0.0454,0.1816,0.0902,0.2258,0.181c0.0453,0.0448,0.0453,0.0901,0.0908,0.1356c0,0,0.0454,0.0454,0.0454,0.0902
		c0,0.0908,0.0453,0.0908,0.0453,0.1356c0,0.0453,0.0454,0.0453,0.0454,0.0908c0.0896,0.0902,0.1803,0.2264,0.2711,0.4067
		c0.2712,0.4073,0.4981,0.7245,0.6331,0.9048c0.2257,0.3619,0.4073,0.6337,0.5876,0.8595c0.0908,0.0901,0.2258,0.1809,0.3165,0.3165
		c0.0908,0.0454,0.1816,0.1362,0.3619,0.2717c0.0908,0.0901,0.1815,0.181,0.2711,0.2258c0.1362,0.0908,0.2712,0.1809,0.362,0.2263
		c0.1816,0.0454,0.3165,0.0902,0.4073,0.0902c0.5435,0,0.995-0.0448,1.357-0.0448c0.5423,0,0.995,0.0448,1.4023,0.0901
		c0.2258,0.0454,0.4969,0.181,0.9043,0.3165c0.2257,0.1356,0.4527,0.181,0.5876,0.2718c0.0908,0.0447,0.1816,0.1356,0.3165,0.2711
		c0.1816,0.0902,0.2724,0.181,0.3165,0.2258c0.1362,0.0908,0.227,0.181,0.3178,0.3165c0.0896,0.1362,0.1803,0.2717,0.2699,0.4527
		c0.0466,0.0901,0.1362,0.2711,0.1815,0.4521c0.0908,0.2264,0.2258,0.6331,0.4074,1.1312c0.1803,0.5876,0.3165,0.995,0.4073,1.3115
		c0.1803,0.4515,0.2711,0.8588,0.3619,1.2207c0.1804,1.0852,0.5876,2.2611,1.2207,3.5727c0.135,0.3165,0.2712,0.5435,0.3619,0.6785
		c0.1804,0.2264,0.3165,0.4527,0.4969,0.6791c0.1362,0.1356,0.3165,0.3165,0.4981,0.4521c0.1349,0.0902,0.3165,0.2711,0.5423,0.4521
		c0.2269,0.181,0.4073,0.3165,0.5435,0.4521c0.1803,0.1356,0.3619,0.3165,0.4969,0.4521c0.0454,0.046,0.135,0.0905,0.1816,0.1359
		c0.0442,0.0454,0.1349,0.0908,0.2258,0.1815c0.0908,0.0896,0.1349,0.135,0.1803,0.1804c0.0908,0.0454,0.1362,0.0908,0.2269,0.1362
		c0.0896,0.1349,0.2258,0.2257,0.362,0.2711c0.0442,0.0454,0.0895,0.0454,0.1803,0.0454c0,0.0442,0.0453,0.0442,0.0908,0.0442
		l0.8588,0.0908c0.0454-0.0442,0.0908-0.0442,0.0908-0.0908c0.0454,0,0.0908,0,0.135,0c0.0453,0,0.1362,0,0.1815,0.0466
		c0.0454,0,0.0908,0.0442,0.1803,0.0896c0.0454,0,0.0454,0,0.0908,0c0.0454,0,0.0908,0.0453,0.0908,0.0453
		c0.0896,0.0454,0.1803,0.0908,0.2258,0.1816c0.0454,0,0.0454,0.0442,0.0908,0.0896c0,0.0454,0,0.0454,0.0454,0.0908
		c0,0.0454,0,0.0908,0.0442,0.1362c0,0.0442,0.0466,0.0896,0.0466,0.1349c0,0.0454-0.0466,0.1362-0.0908,0.227
		c-0.0454,0.0442-0.1362,0.0896-0.2269,0.1803c0,0.0454,0,0.0454-0.0454,0.0896c0,0-0.0442,0.0466-0.0896,0.0466
		c-0.0908,0.0442-0.1362,0.0896-0.1816,0.1349c-0.0895-0.0453-0.1803-0.0453-0.2257-0.0453c-0.0454,0-0.0908,0-0.1362,0
		c-0.0442,0-0.0896,0.0453-0.0896,0.0453c-0.0454,0-0.0908,0.0454-0.1362,0.0454c-0.1804,0-0.362,0-0.5876,0.0454
		c-0.0908,0-0.1816,0-0.2712,0.0453c-0.0908,0-0.1816,0.0454-0.3165,0.0454c-0.0454,0-0.0908,0.0442-0.1362,0.0442
		c-0.0454,0-0.1349,0-0.2258,0c-0.0454,0-0.0908,0-0.1815,0.0454c-0.0454,0-0.0896,0.0454-0.0896,0.0454
		c-0.0454,0.0454-0.0908,0.0908-0.0908,0.0908c0,0.0453,0,0.0908,0,0.1362v0.0442c0,0.0454,0.0453,0.0454,0.0453,0.0908
		c0,0,0.0454,0,0.0896,0c0.0908,0.0454,0.1816,0.0454,0.2724,0.0454c0.0896-0.0454,0.1804-0.0454,0.2711-0.1362l0.4515-0.0896
		c0.0454,0,0.0454,0,0.0908,0c0.3165-0.0454,0.5435-0.0454,0.6785-0.0454c0.2258-0.0453,0.4073-0.0453,0.5876,0
		c0.1816,0,0.362,0.0454,0.4981,0.0908c0.0896,0,0.1362,0.0442,0.1803,0.0442c0.0908,0,0.1362,0,0.1816,0
		c0.0454,0.0454,0.0454,0.0454,0.0896,0.0908c0.0453,0,0.0908,0.0454,0.0908,0.0908c0.0454,0,0.0908,0,0.1362,0.0454
		c0.0454,0,0.0896,0.0454,0.1349,0.0454c0.0454,0.0442,0.0908,0.0895,0.1362,0.1349c0,0.0454,0.0454,0.0908,0.0454,0.1362
		c0,0,0.0454,0.0454,0.0454,0.0896c0,0.0454,0.0442,0.0908,0.0442,0.1362c0,0.0454,0,0.0908,0,0.1362
		c0,0.0454-0.0442,0.0896-0.0442,0.1803c0,0.1362,0,0.2258-0.0454,0.3165c-0.0454,0.0908-0.0908,0.2258-0.1362,0.2711
		c-0.0908,0.1362-0.1803,0.3165-0.2711,0.5435c-0.1362,0.2257-0.2258,0.4073-0.2712,0.5423c0,0,0,0-0.0453,0
		c-0.0454,0.0454-0.135,0.1361-0.2258,0.2257c-0.1816,0.1362-0.2724,0.2712-0.3619,0.3165c-0.0908,0.0908-0.227,0.1816-0.3165,0.227
		c-0.362,0.2711-0.6785,0.4969-1.0404,0.7238c-0.4074,0.2258-0.7693,0.3619-1.0858,0.4515
		c-0.2257,0.1362-0.4515,0.227-0.6784,0.2711c-0.1804,0.0454-0.3619,0.0908-0.5423,0.0908l-0.6785-0.0908
		c-0.0908,0-0.1362-0.0442-0.227-0.1349c-0.0442-0.0454-0.0896-0.0908-0.1803-0.2258c-0.0454,0-0.0454-0.0466-0.0908-0.0908
		c-0.0454-0.0908-0.0895-0.1362-0.1349-0.1815c0-0.0454-0.0454-0.135-0.0454-0.1803c0.0454-0.0908,0.0454-0.1362,0.0454-0.1816
		c0-0.0442,0-0.1349,0-0.1349c0-0.0454,0-0.0908-0.0454-0.1362c0-0.0454-0.0453-0.0896-0.0453-0.0896
		c-0.0454-0.0466-0.0454-0.0908-0.0908-0.0908c0-0.0454,0-0.0454-0.0442-0.0908c0-0.0908-0.0466-0.1362-0.0908-0.1362
		c-0.0454-0.0895-0.0908-0.1349-0.1362-0.1803c-0.0908-0.0453-0.1362-0.0908-0.2258-0.1362c0,0-0.0454,0-0.0908-0.0453
		c-0.0454,0-0.0454,0-0.1362,0c-0.2712-0.0442-0.5877-0.0896-0.9042-0.1804c-0.1349-0.0454-0.2711-0.0908-0.4515-0.135
		c-0.0908,0-0.227-0.0466-0.4073-0.1362c0,0,0,0-0.0454,0c-1.4931-0.4527-3.0304-0.995-4.6584-1.6735
		c-1.4024-0.5876-2.9396-1.3115-4.6585-2.1716c-0.0908-0.0442-0.1815-0.0896-0.3165-0.1804
		c-0.0908-0.0454-0.1815-0.1362-0.3619-0.227c-0.1362-0.0896-0.2258-0.1803-0.3165-0.2258
		c-0.0908-0.0908-0.2258-0.1349-0.3165-0.1803c-0.0908-0.0454-0.1362-0.0908-0.2258-0.1362
		c-0.0454-0.0454-0.0908-0.1349-0.1816-0.2258c0-0.0454,0-0.0908,0-0.0908c0-0.0454-0.0454-0.0908-0.0454-0.135
		c0-0.0454-0.0453-0.0908-0.0453-0.1361c0-0.0908,0-0.1813,0-0.2261c0-0.0454,0-0.0908,0.0453-0.1356c0,0,0-0.0454,0.0454-0.0908
		c0.0454-0.0454,0.0454-0.0901,0.0454-0.0901c0.0453-0.0454,0.0453-0.0908,0.0453-0.0908c0.0454-0.1356,0.0908-0.2258,0.0908-0.3613
		c0.0442-0.046,0.0896-0.181,0.0896-0.3172c0.0453-0.1356,0.0908-0.2712,0.1362-0.3613c0.0454-0.1356,0.0908-0.2717,0.1361-0.3626
		c0.0896-0.5423,0.1804-1.0397,0.2258-1.4925c0.0454-0.3613,0.0454-0.6778,0.0454-1.0398c0-0.3165,0-0.6785-0.0908-0.995
		c0-0.6331-0.0454-1.2661-0.2258-1.8545c-0.1362-0.5883-0.3619-1.2207-0.6331-1.809c-0.0454-0.0454-0.0908-0.0908-0.1362-0.1356
		c0-0.0453-0.0454-0.0901-0.0908-0.1809c-0.0453-0.0908-0.0453-0.1362-0.0895-0.181c0-0.0454-0.0454-0.0902-0.0908-0.1356
		c0-0.0454,0-0.0908,0-0.1362c0-0.0902,0-0.0902,0-0.135C169.9404,76.7678,169.9404,76.723,169.9404,76.6776z M169.9404,70.2101
		c0-0.0453,0-0.0453,0.0454-0.0901c0-0.0454,0-0.0908,0-0.0908c0.0454-0.0901,0.0896-0.1803,0.1803-0.2263
		c0-0.0902,0-0.1804,0.0454-0.2712c0-0.1356,0.0453-0.2257,0.1362-0.2711c0-0.0454,0.0442-0.0908,0.0895-0.1356
		c0.0454,0,0.0454,0,0.0908,0v-0.0454h0.0453c0,0,0.0454,0,0.0908,0.0454c0,0,0,0,0,0.0448h0.0442
		c-0.0442,0.0454-0.0442,0.0454-0.0442,0.0908c0,0.0454-0.0454,0.0902-0.0908,0.1356c0,0.0454-0.0453,0.0454-0.0453,0.0902
		c0,0.0454,0,0.0454,0,0.0908c0,0,0,0-0.0454,0c-0.0454,0.0902-0.0908,0.1356-0.1349,0.2258c0,0,0,0.046,0,0.0908
		c-0.0454,0-0.0454,0.0454-0.0454,0.0902c-0.0454,0.1362-0.1362,0.2263-0.2269,0.3165c-0.0442,0.0454-0.0896,0.0908-0.0896,0.0908
		h-0.0454V70.2101z M169.8496,68.6723c0,0-0.0454,0-0.0908,0c0,0.0454,0,0.0454-0.0454,0.0454c0,0.0454-0.0442,0.0454-0.0442,0.0454
		c-0.0454,0-0.0908,0.0454-0.0908,0h-0.0454l0.0454-0.1356v-0.1356v-0.2718c0.0454-0.1356,0.0454-0.2257,0.0908-0.3165
		c0-0.1356,0.0442-0.2257,0.1349-0.2717v-0.2711c0,0,0,0,0.0454,0l0.1362-0.1356h0.0454h0.1349c0.0454,0,0.0454,0,0.0454,0
		c0.0453,0,0.0453,0.0454,0.0908,0.0454v0.0448c0,0.0454,0,0.0454,0,0.0908l-0.0454,0.1356v0.1362l-0.0453,0.3165v0.2711
		c-0.0454,0-0.0454,0-0.0454,0s-0.0454,0.0454-0.0908,0.0454c0,0,0,0.0448-0.0442,0.0901
		c-0.0454,0.0454-0.0908,0.0908-0.1362,0.1356v0.1356H169.8496z M96.4001,86.492c0,0,0.0454-0.0901,0.0454-0.1809
		c0-0.0448,0.0454-0.0448,0.0454-0.0902c0.0454,0,0.0454-0.0454,0.0896-0.0908c0-0.0448,0.0453-0.0902,0.0453-0.0902
		c0.0454-0.0454,0.0454-0.0901,0.0908-0.0901c0.0453-0.0908,0.1362-0.1362,0.2257-0.181c0,0,0.0454-0.0454,0.0908-0.1362
		c0.0454,0,0.0908-0.0448,0.1362-0.1356c0.0442-0.0448,0.0896-0.0902,0.1349-0.1356c0.0454-0.0454,0.0454-0.0454,0.0908-0.0901
		c0,0,0.0454-0.0454,0.0454-0.0908c0.0454-0.0901,0.0908-0.1356,0.135-0.1809c0.0454-0.0448,0.0908-0.0908,0.0908-0.1356
		c0.0908-0.0901,0.1816-0.1356,0.2258-0.1356c0.0454-0.0453,0.0908-0.0453,0.1362-0.0453c0,0,0.0453,0.0453,0.0453,0.0908
		c0,0.0448,0,0.0901,0,0.1349c0,0.046-0.0453,0.046-0.0453,0.0908c-0.0454,0.0908-0.0908,0.1362-0.1362,0.1809
		c-0.135,0.0908-0.1803,0.181-0.2258,0.2264c-0.0454,0.0454-0.0908,0.0902-0.0908,0.181c-0.0896,0.0448-0.1803,0.1356-0.2258,0.2711
		c-0.0454,0.0448-0.0908,0.0908-0.0908,0.1356c-0.0454,0.0454-0.0454,0.0908-0.0454,0.1356
		c-0.0442,0.0453-0.0442,0.0453-0.0896,0.0908c0,0.0454-0.0454,0.0454-0.0454,0.0902c0,0.0454,0.0454,0.0454,0.0908,0.0454
		c0,0,0,0,0,0.0454c0,0.0448,0.0442,0.0901,0.0442,0.181c0.0454,0.0448,0.0454,0.0901,0.0908,0.0901
		c0.0454,0,0.0908,0,0.1362-0.0454c0.0454,0,0.0908-0.0448,0.1803-0.1356c0.0454,0,0.0908-0.0454,0.0908-0.0454h0.0453
		c0,0,0,0,0.0454,0c0-0.0448,0-0.0448,0.0454-0.0448v-0.0454c0.0442-0.0454,0.0442-0.0454,0.0442-0.0901
		c0.0454-0.0908,0.0908-0.181,0.1362-0.2264c0.1362-0.1362,0.3619-0.3619,0.6331-0.6331c0.3165-0.3165,0.5435-0.5883,0.6785-0.7238
		c0.2711-0.2712,0.5422-0.5423,0.7692-0.7233c0.1349-0.0908,0.3619-0.2717,0.6331-0.4975c0.1349-0.0908,0.2258-0.1816,0.3165-0.2264
		c0.0908-0.1362,0.1804-0.2718,0.2711-0.4073c0.0454-0.0448,0.0908-0.181,0.1816-0.3165c0.0442-0.0908,0.0896-0.181,0.1349-0.2264
		c0.0454-0.0447,0.0454-0.0901,0.0908-0.1349c0.0453-0.046,0.0908-0.0908,0.1804-0.1362c0.2724-0.2263,0.4527-0.4073,0.5889-0.5429
		c0.2257-0.2258,0.4515-0.4067,0.6331-0.5877c0.0454-0.0454,0.1349-0.1356,0.2258-0.2263c0.2257-0.181,0.3619-0.3166,0.4527-0.4074
		c0.1804-0.1349,0.3165-0.2711,0.4515-0.4067v-0.0448c0.0908-0.0454,0.1816-0.1362,0.227-0.181
		c0.0896-0.0454,0.135-0.1356,0.1803-0.181c0.1362-0.1816,0.2258-0.3165,0.2712-0.4981c0-0.0448,0-0.0448,0-0.0448
		s0,0,0.0454-0.0453c0.0908-0.0448,0.1362-0.1356,0.1815-0.181c0.0442-0.0454,0.0442-0.0902,0.0442-0.1803c0,0,0,0,0.0454,0
		c0,0,0.0454,0,0.0908,0c0,0,0,0,0.0454,0s0.0908-0.0454,0.0908-0.0454c0.0442,0,0.0442,0,0.0896,0
		c0.0454,0.0454,0.0908,0.0454,0.1362,0.0902c0.0454,0,0.0454,0,0.0908,0c0,0,0,0.0454,0.0454,0.0454l0.0442,0.0448
		c0,0,0.0454,0.0454,0.0908,0.0908c0,0,0,0,0,0.0454c0,0.0454,0,0.0454-0.0454,0.0902c0,0.0453,0,0.0901,0,0.0901
		c-0.0454,0.0908-0.0896,0.1362-0.135,0.2264c0.0454,0.0454,0.0454,0.0454,0.0454,0.0901c0,0.046-0.0454,0.0908-0.0454,0.1362
		c-0.0454,0.0454-0.0454,0.0908-0.0908,0.181c-0.0454,0.0454-0.0908,0.0902-0.1362,0.1356l-5.0204,5.6081c0,0,0,0,0,0.0454
		c-0.0896,0.0454-0.1803,0.1356-0.1803,0.181c-0.0908,0.0454-0.1362,0.1356-0.1362,0.181
		c-0.0442,0.0454-0.0896,0.0902-0.1349,0.1803c0,0.046,0,0.046,0,0.0908v0.0454c0,0.0454,0,0.0454,0.0453,0.0454
		c0,0,0.0454,0,0.0896,0.0448c0,0,0.0454,0,0.0908,0c0.0454,0,0.0454,0,0.0908,0c0.0453-0.0448,0.1349-0.0448,0.1803-0.0902
		c0.0454-0.0454,0.0454-0.0454,0.0454-0.0454c0.0908-0.0908,0.1816-0.1356,0.1816-0.1809c0.0442-0.0448,0.0896-0.1356,0.0896-0.181
		c0.4073-0.4522,0.86-0.9496,1.3115-1.4471c0.2724-0.3165,0.7238-0.814,1.2674-1.4471c0.9496-0.995,1.6281-1.7643,2.1249-2.352
		c0.0908-0.0454,0.1815-0.1362,0.2711-0.2263c0.227-0.1356,0.362-0.2712,0.4981-0.4067c0.0908-0.0908,0.1349-0.181,0.1349-0.3165
		c0-0.0454,0-0.1356-0.0442-0.2264c0.0442-0.0454,0.0896-0.1356,0.0896-0.1809c0.0454-0.0448,0.0454-0.0448,0.0454-0.0908
		c0,0,0,0,0.0453,0c0.0454,0,0.0908,0,0.0908,0c0.0454,0,0.0908,0,0.135,0.046c0.0454,0,0.1362,0.0448,0.1816,0.1356
		c0,0,0,0,0,0.0448c0,0,0.0453,0.0454,0.0908,0.0901c0,0.046,0.0442,0.0908,0.1349,0.1816
		c0.0908,0.0454,0.1362,0.1356,0.1816,0.1356c0,0,0,0,0,0.0454c0.3165,0.5876,0.5876,1.0852,0.8134,1.4919
		c0.2712,0.4975,0.4981,0.995,0.7239,1.4925c0.3165,0.7692,0.5876,1.5833,0.7692,2.3525c0.1349,0.7232,0.2257,1.4919,0.3165,2.3516
		c0,0.0454,0.0453,0.0908,0.0453,0.135c0.0442,0,0.0442,0.0454,0.0896,0.0908c0,0.0454,0,0.0908,0.0454,0.0908
		c0,0.0454,0,0.0908,0.0453,0.135c0,0.0466,0,0.0908,0.0454,0.0908c0.0454,0.0454,0.0454,0.0454,0.0908,0.0454
		c0,0,0.0454,0,0.0454-0.0454c0.0442,0,0.0442-0.0442,0.0896-0.0442c0.0454-0.0908,0.0908-0.1362,0.1362-0.1816
		c0,0,0-0.0454,0-0.0908c0-0.0454,0-0.0454,0-0.0908c0-0.0896-0.0454-0.2258-0.0908-0.3607l0.0908-0.7241
		c-0.0454-0.3619-0.0454-0.7686,0-1.2207c0-0.2718,0.0454-0.6337,0.1349-0.995c0.0454-0.181,0.0908-0.5435,0.227-0.9502
		c0.0895-0.4067,0.1349-0.7233,0.1803-0.9049c0-0.0447,0-0.0901,0.0454-0.0901c0-0.0448,0-0.0908,0.0454-0.1356
		c0.0454-0.0454,0.0454-0.0908,0.0908-0.0908c0-0.0453,0-0.0453,0-0.0901c0-0.0454,0.0454-0.1356,0.0896-0.181
		c0.0454-0.0454,0.0454-0.0908,0.0908-0.0908v-0.0448l0.4527,0.0448v0.0454c0.0896,0.0908,0.135,0.181,0.1804,0.2264
		c0.0908,0.0901,0.1361,0.1356,0.227,0.2258c0,0.046,0.0442,0.0908,0.0442,0.1362c0.0454,0,0.0454,0.0447,0.0454,0.0901
		c0.0454,0.0454,0.0454,0.0902,0.0454,0.1362c0.0454,0.0448,0.0454,0.0902,0.0908,0.0902c0.0453,0.1356,0.0908,0.3165,0.0908,0.5422
		c0,0.0908-0.0454,0.2718-0.0454,0.4528c0.0454,0.1356,0.0454,0.2711,0,0.4521c0,0.1362-0.0453,0.3165-0.0908,0.5429
		c-0.0454,0.1356-0.1362,0.3165-0.2258,0.5883c-0.227,0.7232-0.4981,1.4471-0.86,2.1706c-0.3165,0.6785-0.7681,1.4023-1.3115,2.1704
		c-0.0908,0.0908-0.1803,0.1362-0.2258,0.1816c-0.0454,0.0908-0.0908,0.1362-0.0908,0.2257v0.227l0.2258,0.0442
		c0.0454-0.0442,0.0454-0.0442,0.0908-0.0896c0,0,0.0453-0.0454,0.0453-0.0908c0.0454-0.0454,0.0454-0.0908,0.0908-0.0908
		c0-0.0454,0.0453-0.0895,0.0908-0.1349c0.0896-0.0454,0.1803-0.1362,0.2258-0.1816c0.0454-0.0454,0.0908-0.1349,0.0908-0.1804
		c0.0442-0.0908,0.0896-0.1362,0.1804-0.227c0.1362-0.2258,0.2712-0.3607,0.3165-0.4515c0.1362-0.1815,0.2258-0.3165,0.3165-0.4527
		c0.2258-0.3165,0.4074-0.6331,0.5423-0.9042c0.7692-1.583,1.3128-3.0761,1.6293-4.5232l0.0442-0.4073
		c0.0454-0.0448,0.0908-0.0902,0.1362-0.1804c0-0.0454,0.0453-0.0454,0.0453-0.0902c0.0454,0,0.0908,0,0.135,0
		c0.0454,0,0.0908,0,0.1362,0c0,0.0448,0.0454,0.0448,0.0908,0.0902c0,0.0447,0.0454,0.0901,0.0454,0.1356c0,0,0,0.0448,0,0.0908
		c0.0898,0.0448,0.1352,0.1804,0.2708,0.3165c0.0454,0.0448,0.0908,0.0902,0.0908,0.135c0,0.0908,0,0.1809,0.0448,0.2717
		c0,0.0454,0.0454,0.1356,0.0901,0.2258c0.0454,0.0908,0.0908,0.1809,0.0908,0.2717c0.2258,0.6331,0.3619,1.3115,0.4527,2.0354
		c0.0902,0.6785,0.0902,1.3572,0,1.9903c0,0.4515,0,0.8588-0.0454,1.2661c-0.0454,0.6785-0.2264,1.3115-0.4074,1.8538
		c-0.1809,0.3165-0.4073,0.6784-0.6327,1.0858c-0.2711,0.3619-0.4981,0.7238-0.7692,1.0404
		c-0.0908,0.135-0.1804,0.2258-0.2258,0.3165c-0.0908,0.0908-0.1815,0.1816-0.2711,0.2712
		c-0.1816,0.1803-0.4073,0.3619-0.5889,0.4527c-0.0896,0.1349-0.1804,0.2257-0.3165,0.2711
		c-0.0896,0.0908-0.1804,0.135-0.362,0.2258c-0.1349,0.0908-0.2258,0.1362-0.2711,0.1816
		c-0.0896,0.0442-0.2258,0.1349-0.2712,0.1804h-0.0454c-0.7239,0.3619-1.3569,0.5889-1.8992,0.6784
		c-0.7692,0.227-1.5372,0.3165-2.3065,0.227c-0.2258,0-0.4981-0.0454-0.7239-0.0908c-0.1803-0.0453-0.3619-0.0908-0.5423-0.1362
		c-0.0908-0.0453-0.1815-0.0895-0.2724-0.1349c-0.0895,0-0.1803-0.0454-0.2711-0.0908c-0.1349-0.0908-0.2258-0.1362-0.2711-0.1362
		c-0.135-0.0454-0.2258-0.0896-0.2712-0.135c-0.4527-0.0454-0.86-0.227-1.2661-0.5435c-0.4073-0.3165-0.8147-0.6785-1.2661-1.0858
		c-0.4527-0.4061-0.8601-0.8134-1.222-1.1754c-0.6785-0.6331-1.4465-1.4023-2.2158-2.3065
		c-0.3165-0.3619-0.6331-0.7238-0.995-1.1766c-0.2258-0.3153-0.5435-0.6785-0.86-1.0846c-0.0442-0.0908-0.0896-0.227-0.1803-0.3619
		c-0.0454-0.0908-0.0908-0.1362-0.0908-0.1815c-0.0453-0.0896-0.0895-0.135-0.0895-0.2258
		c-0.0454-0.0454-0.0908-0.0899-0.0908-0.0899c0-0.046-0.0454-0.0908-0.0454-0.1362C96.4001,86.6276,96.4001,86.5828,96.4001,86.492
		z M83.2394,56.371c0-0.0908,0-0.181,0-0.2264c0.0442-0.0908,0.0442-0.1362,0.0442-0.2263c0.0454-0.181,0.0908-0.3619,0.1816-0.5423
		c0.2257-0.3172,0.4073-0.5883,0.5423-0.8147c0.227-0.2711,0.4073-0.5429,0.6331-0.7686c0.227-0.2264,0.4981-0.4975,0.9054-0.8595
		c0.2711-0.2263,0.5876-0.4975,0.995-0.7686c0.0442-0.0454,0.1349-0.0908,0.2257-0.2264c0.0908-0.0454,0.1362-0.0901,0.1362-0.0901
		c0.0442-0.0454,0.0896-0.0908,0.135-0.0908c0.0908-0.0908,0.1815-0.0908,0.2711-0.0908c0.0454-0.0448,0.0908-0.0448,0.0908-0.0448
		c0.0454,0,0.0454,0.0448,0.0908,0.0902c0,0,0,0.0454-0.0454,0.0908c0.0454,0.0454,0.0908,0.0454,0.0908,0.0902
		c0,0-0.0453,0.0454-0.0453,0.0901c0,0.0454-0.0454,0.0454-0.0454,0.0908v0.0454c0,0,0,0,0,0.0454
		c-0.0908,0.0453-0.1816,0.1356-0.3165,0.2258c-0.0908,0.0454-0.1362,0.0454-0.1816,0.0908
		c-0.3619,0.3613-0.6784,0.7233-0.9496,0.9496c-0.3165,0.3619-0.5876,0.7233-0.8134,0.995
		c-0.4527,0.4975-0.8147,1.0404-1.0404,1.6281c0,0.0454-0.0454,0.1362-0.0908,0.2263c-0.0453,0.0908-0.0908,0.1356-0.0908,0.181
		c-0.0454,0.0454-0.0896,0.0902-0.135,0.1356c0,0.0908-0.0453,0.181,0,0.2264c0,0.0901,0.0454,0.1356,0.0896,0.181
		c0,0.0448,0,0.0448,0,0.0901c0.0454,0,0.0454,0,0.0908,0c0,0.0454,0.0453,0.0454,0.0453,0.0454c0.0454,0,0.0908,0,0.1362,0
		c0.0454,0,0.0454,0,0.0454,0c0.0442,0,0.0442,0,0.0896,0c0,0,0,0,0.0453-0.0454c0,0,0.0454,0,0.0454-0.0454
		c0.0454,0,0.0454-0.0448,0.0454-0.0902c0,0,0.0454-0.0454,0.0454-0.0901c0.0454-0.0454,0.0896-0.0908,0.0896-0.1362
		c0.0454-0.0908,0.0454-0.1356,0.0454-0.2258c0.0908-0.1356,0.1815-0.2717,0.3165-0.4074c0.0453-0.0908,0.1815-0.1809,0.3165-0.3619
		c0.227-0.2712,0.4073-0.4975,0.5435-0.6331c0.1804-0.2718,0.362-0.4975,0.4969-0.7239l0.4527-0.3619
		c0.0454-0.0447,0.0908-0.0901,0.0908-0.0901c0.0453,0,0.0453-0.0448,0.0453-0.0448c0.0442,0,0.0442,0,0.0896,0
		c0,0,0.0454,0,0.0908,0c0.0454,0,0.0454,0,0.0908,0.0448c0.0454,0,0.0454,0.0901,0.0454,0.1356l-0.0454,0.4074
		c0,0.0454,0,0.0454,0,0.0454c-0.0454,0.0448-0.0908,0.0902-0.1362,0.1803c0,0.0454,0,0.0454,0,0.0908
		c-0.0454,0.0447-0.0454,0.0447-0.0454,0.0908v0.0448c-0.0454,0.0901-0.0896,0.181-0.1349,0.2717
		c-0.0454,0.0448-0.1362,0.1349-0.1816,0.2258c-0.0908,0.1356-0.1803,0.2257-0.1803,0.2717
		c-0.0908,0.0901-0.1362,0.181-0.1816,0.2711c-0.0454,0.0448-0.1349,0.1356-0.2257,0.2712
		c-0.0454,0.0454-0.0908,0.1362-0.1362,0.1362c-0.0454,0.0448-0.0896,0.0901-0.135,0.1356c0,0.0448,0,0.0901-0.0454,0.1349
		c0,0.0908-0.0454,0.1362-0.0454,0.1816c0,0.0454,0,0.0454,0,0.0454h0.0454v0.0447c0,0.0454,0,0.0908,0,0.0908
		c0,0.0448,0,0.0901,0,0.0901c0,0.0454,0.0454,0.0454,0.0454,0.0908h0.0454c0.0442,0,0.0896,0,0.1349,0.0448
		c0,0,0,0.0454,0.0454,0.0454c0,0.0454,0.0454,0.0454,0.0454,0.0454l0.0454,0.0448h0.0454
		c0.0453,0.0454,0.0453,0.0908,0.0453,0.0908c0.0442,0.0454,0.0442,0.0454,0.0896,0.0902c0,0.0454,0,0.0901,0.0454,0.1362
		c0,0,0,0.0447,0.0454,0.1356c0,0.0448,0,0.0448,0,0.0448c0,0.0454,0,0.0454,0,0.0908c0,0.0454-0.0454,0.0902-0.0454,0.0902
		c0,0.0908-0.0454,0.1356-0.135,0.2263l-0.2723,0.9496c-0.0454,0.2264-0.1804,0.5877-0.3166,1.0404
		c-0.1349,0.3619-0.2257,0.5883-0.2711,0.7692c0,0.0448-0.0454,0.1356-0.0908,0.2705c-0.0442,0.046-0.0442,0.0908-0.0896,0.1362
		c-0.0454,0-0.0454,0.0454-0.0908,0.0908c-0.0908,0.0448-0.1362,0.0901-0.1816,0.1349c-0.0896,0-0.1804,0.0454-0.2258,0.0454
		c-0.0454,0-0.0908-0.0454-0.0908-0.0902c-0.0442,0-0.0442-0.0454-0.0442-0.0901c-0.0454-0.0454-0.0454-0.0454-0.0454-0.0908
		c-0.0454,0-0.0454-0.0454-0.0454-0.0901c-0.0454,0-0.0908-0.046-0.0908-0.1362c-0.0453-0.0448-0.0453-0.0902-0.0453-0.1803
		c-0.0454-0.046-0.0454-0.0908-0.0454-0.1362c-0.0442-0.0448-0.0442-0.0908-0.0896-0.1356l-0.7692-3.2114
		c-0.0908-0.181-0.1362-0.3613-0.1804-0.5423C83.2394,56.7776,83.194,56.5513,83.2394,56.371z M83.6001,52.7977
		c0-0.0454,0-0.0454,0-0.0908v-0.0454l0.4981-0.3165c0.0454-0.135,0.1803-0.2712,0.3165-0.4067
		c0.0908-0.0901,0.2711-0.2263,0.4527-0.3619c0.1349-0.0448,0.2711-0.1356,0.3619-0.181c0.0442-0.0454,0.0895-0.0454,0.1349-0.0902
		c0.0454-0.0454,0.0908-0.0454,0.1362-0.0901c0-0.0454,0-0.0454,0.0454-0.0454c0.0895-0.0908,0.1349-0.1362,0.1803-0.1816
		c0.0908-0.0448,0.1803-0.0448,0.2258-0.0448h0.0453l0.0908,0.181c0,0.1356-0.0908,0.2712-0.3166,0.4074
		c0,0.0901-0.0454,0.1349-0.0908,0.2257c-0.0454,0.0454-0.1349,0.0908-0.2258,0.181l-0.9496,0.7233
		c-0.0454,0.0454-0.0908,0.0908-0.0908,0.1362c-0.0454,0-0.0908,0.0448-0.1362,0.1356c-0.0442,0.0454-0.0896,0.0902-0.135,0.1356
		c-0.0454,0.0454-0.0908,0.0908-0.1361,0.0908c-0.135,0.1356-0.2258,0.2257-0.3619,0.2257
		c-0.0454,0.0454-0.0896,0.0454-0.135,0.0454c0,0-0.0453,0-0.0908,0l-0.0454-0.0454l0.0454-0.2711c0-0.0454,0-0.0454,0-0.0454
		c0.0908-0.0454,0.1362-0.0901,0.1362-0.1803C83.6001,52.8425,83.6001,52.8425,83.6001,52.7977z M7.4821,57.7272
		c0.0908-0.0908,0.1362-0.2257,0.1362-0.3165c0-0.0454,0-0.0454,0-0.0901c0-0.181,0-0.4074,0.0454-0.6331
		c0-0.2717,0.0908-0.6791,0.1803-1.2667c0.1362-0.6785,0.227-1.176,0.2711-1.5373c0.0454-0.4981-0.0895-1.1312-0.3607-1.9452
		c0-0.0901,0-0.181,0-0.2717c0-0.0448,0-0.0901,0-0.0901c0.0442-0.0902,0.0442-0.1356,0.0896-0.2264
		c0-0.1349,0.0908-0.3165,0.227-0.5876c0.135-0.1356,0.3165-0.3619,0.5423-0.6331c0.6785-0.8594,1.1754-1.4477,1.5373-1.809
		c4.2523-4.2064,8.2765-7.6889,12.1669-10.4021c0.0454,0,0.0454,0,0.0454-0.0454l1.0392-0.8594c0.0454,0,0.0908,0,0.1362-0.0454
		c0.4527-0.2264,0.8147-0.4521,1.1312-0.6785c3.98-2.5783,9.0004-5.3817,15.0599-8.3667c0.0453-0.0454,0.0908-0.0454,0.0908-0.0908
		h0.0454c0.2257-0.1356,0.3165-0.2711,0.3619-0.4527v-0.0447c0.0908-0.0902,0.0908-0.2264,0.135-0.3619
		c0-0.1356-0.0442-0.2264-0.135-0.3165c-0.0454-0.1356-0.1815-0.181-0.3165-0.181l-0.2711-0.0454c-0.1362,0-0.2724,0-0.4527,0.0908
		h-0.0454c-0.0454,0-0.0908,0.0454-0.1349,0.0454c-0.9054,0.3165-1.9004,0.5877-2.985,0.7687c-0.1362,0-0.2724,0.0447-0.4073,0.0901
		c0.0454-0.0901,0.0896-0.1355,0.1349-0.2258c0.1362-0.0454,0.227-0.0908,0.3165-0.1809c0.4981-0.3619,1.0858-0.7239,1.8097-0.995
		c1.4477-0.5429,2.7593-0.814,3.9346-0.814c0.1815,0,0.3165,0,0.4073,0c0.135,0,0.2258-0.0454,0.3619-0.1362
		c0.1349,0,0.2711-0.0902,0.3619-0.2258c0.0454-0.0908,0.0895-0.181,0.0895-0.2711c0.0454-0.2718-0.0895-0.4527-0.3165-0.6331
		c0-0.0453-0.0442-0.0453-0.0442-0.0453c-0.0908-0.0908-0.1816-0.1816-0.3177-0.1816l-0.4061-0.0448
		c-0.7239-0.0901-1.1766-0.1356-1.4024-0.2717c-0.0454,0-0.0908,0-0.1362,0c0.0908-0.0448,0.1362-0.0448,0.1816-0.0901
		c1.4465-0.181,2.5323-0.3166,3.1654-0.3613c0.0454,0,0.0454,0,0.0454,0c1.4024-0.1362,2.7139-0.1362,4.0708,0.0447
		c0.135,0,0.2258,0,0.2711,0.0454c0.0454,0.0448,0.0908,0.0902,0.1362,0.1356c0.0454,0.0454,0.0896,0.0908,0.135,0.1356
		c0,0.0454,0,0.0454,0,0.0454v0.0448l0.227,0.4073c0.3165,0.5877,0.5877,1.0858,0.9042,1.4925h0.0454
		c0,0.0454,0.0454,0.0454,0.0454,0.0902c0.2258,0.227,0.4515,0.3619,0.6331,0.4073h0.2712c0.1349,0.0454,0.2711,0,0.3619-0.0901
		c0.0896-0.0902,0.1803-0.181,0.1803-0.3172l0.0454-0.2712c0-0.1356-0.0454-0.2711-0.1362-0.3619
		c0-0.0448-0.0442-0.0902-0.0896-0.135c-0.0908-0.1362-0.1815-0.227-0.227-0.2717c-0.0896-0.181-0.1803-0.3619-0.3165-0.5429
		c0-0.0454,0-0.0454,0-0.0454c-0.0442-0.1355-0.0896-0.3165-0.1803-0.5423c-0.0454-0.2264-0.0908-0.4073-0.1362-0.4981
		c0-0.0448,0-0.0448,0-0.0901c-0.2258-1.0852-0.3165-1.8545-0.2712-2.3513c0.0454-0.4073,0.0908-0.6785,0.1816-0.7692
		c0.0442-0.0908,0.0442-0.1356,0.0442-0.2258c0.0454-0.0453,0.0454-0.1362,0.1362-0.2717c0.0454-0.0448,0.0908-0.0901,0.0908-0.1356
		h0.0454c0.0454-0.0454,0.0896-0.0908,0.0896-0.0908c0.0908,0,0.1816-0.0454,0.2724-0.0902c0.0442,0,0.0896,0,0.2258,0
		c0.0908,0.0448,0.1804,0.0902,0.2257,0.181c0.0454,0.0454,0.0908,0.0908,0.1362,0.0908c0.2712,0.1803,0.4969,0.3613,0.6331,0.5423
		c0.0908,0.0908,0.1804,0.2258,0.3166,0.3619c0.4073,0.4521,0.6784,0.814,0.7692,1.0858c0,0.0448,0.0454,0.0901,0.1349,0.1803
		c0.4073,0.3619,0.7238,0.9496,0.9054,1.7188c0.135,0.5423,0.2258,1.4023,0.2712,2.5777V25.48c0,0.181-0.0454,0.3165-0.1362,0.4527
		c0,0.0448-0.0454,0.0902-0.0454,0.135c-0.0454,0.0908-0.0896,0.1362-0.2258,0.1815c-0.0454,0.0448-0.0908,0.0448-0.0908,0.0902
		c-0.1803,0.1356-0.2712,0.3165-0.3619,0.5429c-0.0454,0.0902-0.0454,0.1803-0.0896,0.2712c0,0.2257,0.0896,0.3619,0.2712,0.4975
		c0.0896,0.1356,0.2711,0.1809,0.4073,0.2263c0.2258,0,0.4061-0.0454,0.5877-0.2263c0,0,0.0454,0,0.0895-0.0448
		c0.0908-0.0454,0.227-0.0908,0.3178-0.1362c0.1803-0.0908,0.3607-0.2258,0.5876-0.4521c0.0454-0.0454,0.0896-0.0902,0.0896-0.0902
		c0.0454-0.0454,0.0454-0.0908,0.0908-0.0908c0.1361-0.2712,0.2711-0.5429,0.3165-0.8594c0.1362-0.4067,0.227-0.995,0.3165-1.7636
		c0,0,0-0.0454,0-0.0908c-0.0454-0.4975-0.2258-1.2208-0.4969-2.2158c0-0.1816-0.0908-0.4073-0.227-0.6331l0.0454-0.2717
		c0,0,0.0454-0.0448,0.0908-0.0902c0,0,0,0,0-0.0454c0.0454,0,0.0908,0,0.1362,0c0.0896-0.0454,0.1803-0.0454,0.1803-0.0454
		c0.0908,0,0.1362,0,0.2258-0.0454L97.5313,7.5246V7.4793c9.0446-3.0752,17.9097-4.9296,26.5476-5.4719
		c-0.0448,0-0.0902,0.0448-0.1804,0.0902c-0.0453,0-0.0908,0.0448-0.1362,0.0901c-0.1349,0.0908-0.1803,0.2264-0.2257,0.3619
		c0,0.181,0.0453,0.3165,0.0908,0.4527c0.0448,0.1349,0.1349,0.2711,0.3165,0.4067c0.0448,0,0.0448,0.0448,0.0902,0.0448
		c0.0448,0.0908,0.181,0.1362,0.2717,0.1362l0.5423,0.0901c0.8594,0.0902,2.1709,0.181,3.8892,0.3172
		c1.6734,0.1349,2.9402,0.2258,3.7996,0.3165c9.8601,1.3563,18.9954,3.5727,27.4081,6.6933
		c1.6281,0.5883,3.4377,1.3569,5.4719,2.3973c1.1765,0.5876,2.985,1.5379,5.4277,2.8948c1.8084,0.995,3.2107,1.763,4.115,2.2611
		c2.7139,1.4023,5.7896,2.7138,9.3181,3.98c2.125,0.7239,5.2915,1.7636,9.5427,3.0758c3.9345,1.1754,6.8742,2.1249,8.8188,2.8034
		c0.0454,0.0454,0.1362,0.0908,0.1816,0.1362c0.0454,0.0454,0.0896,0.0454,0.0896,0.0901c0.0466,0,0.0466,0.0454,0.0908,0.0454
		c0,0.0448,0,0.0448-0.0442,0.0902c-0.0908,0-0.1816,0.0454-0.2269,0.0908c-0.0454,0-0.0908,0-0.135,0.0454
		c0,0,0,0.0448-0.0454,0.0448c-0.1815,0.1356-0.3177,0.3165-0.4073,0.4521c-0.0908,0.1815-0.1804,0.362-0.227,0.6331
		c0,0.1362,0.0466,0.227,0.0908,0.3619c0.0908,0.0908,0.1816,0.1362,0.3165,0.2263c0.0454,0.0454,0.0908,0.0454,0.0908,0.0454
		c0.0454,0.1356,0.1816,0.181,0.2712,0.2263h0.0454c0.1803,0.0902,0.3165,0.135,0.4073,0.1803
		c0.4073,0.0454,0.6331,0.0908,0.7693,0.1816c0.0454,0,0.0454,0,0.0896,0.0448c9.5427,3.8898,18.77,8.4575,27.6342,13.6588
		c0.1362,0.0902,0.3619,0.2712,0.6331,0.4521c0.5889,0.4073,0.995,0.7238,1.2674,0.9949c0.0442,0.0454,0.0895,0.0454,0.1349,0.0908
		c-0.0908,0-0.1803,0.0453-0.2258,0.0901c-0.2711,0.0454-0.4073,0.2264-0.4073,0.5429c-0.0454,0.3165,0,0.5876,0.1815,0.7686
		c0,0,0,0,0,0.0454c0.0442,0,0.0442,0,0.0896,0.0448c0.1362,0.1815,0.3165,0.3172,0.4527,0.3619
		c0.7239,0.4981,1.7189,1.357,3.0304,2.5783c0.5423,0.4522,0.9042,0.814,1.1753,1.0852c1.0404,1.0404,1.99,2.2164,2.8501,3.4831
		c0.0442,0,0.0442,0,0.0442,0c0.4527,0.5876,1.0858,1.5373,1.8096,2.8942c0.2712,0.4521,0.4527,0.7687,0.5877,0.995
		c1.4023,3.1659,2.3065,6.151,2.7138,9.0004c0.3619,2.7593,0.6331,5.0658,0.7692,6.9196c0.1349,2.4881,0.1349,4.7946-0.0908,6.8748
		c-0.1803,1.5833-0.6331,3.1206-1.4024,4.5229c-0.3165,0.5426-0.6784,1.0861-1.1299,1.6737
		c-0.2711,0.3607-0.7238,0.9042-1.3569,1.6281c-0.4074,0.4969-0.7239,0.8588-0.9509,1.13l-0.4515,0.4981
		c-0.0453,0.0454-0.0908,0.0454-0.0908,0.0908c-0.0908,0-0.1349,0-0.1803,0c-0.1362-0.0454-0.227-0.0454-0.3165,0
		c0-0.0454,0-0.0908,0-0.0908c0.0896-0.4073,0.1803-0.8146,0.2258-1.1765c0.0453-0.7681,0-1.4919-0.1803-2.1704
		c-0.0454-0.4969-0.227-1.1312-0.4981-1.8995c-0.0454-0.0454-0.0454-0.0454-0.0454-0.0908c0,0,0,0,0-0.0448
		c-0.2258-0.3626-0.5423-0.814-0.9496-1.3115c0,0-0.0454,0-0.0454-0.046c-0.2257-0.2705-0.4515-0.4067-0.6784-0.4515
		c-0.1804,0-0.3166,0-0.4061,0c-0.1816,0-0.362,0.0901-0.4981,0.2258c-0.1362,0.0453-0.2711,0.1809-0.4527,0.3619
		c-0.0442,0-0.1349,0-0.2711-0.0454c-0.1362,0-0.2712,0-0.3619,0.0454c-0.0896,0.0454-0.1803,0.0908-0.2712,0.2264
		c-0.0908,0.0901-0.1349,0.181-0.1815,0.2711v0.2712c-0.0442,0.1362,0,0.2717,0.0466,0.4527c0,0,0,0.0448,0.0442,0.0448
		c-0.0442,0.1356,0,0.2263,0.0908,0.3619c0.0908,0.0454,0.1816,0.1807,0.3166,0.3623c0.1361,0.2711,0.227,0.6785,0.3165,1.1754
		c0,0.0908,0.0454,0.1815,0.0454,0.227c0,0.1804,0,0.362,0.0454,0.6319c0,0.0908,0,0.1815,0,0.227
		c-0.0454,0.2258-0.1362,0.4981-0.227,0.8147c-0.0442,0.0895-0.0442,0.1803-0.0442,0.2257
		c-0.0454-0.1815-0.0908-0.3165-0.0908-0.4527c-0.0908-0.3619-0.2258-0.6784-0.4073-0.9496
		c-0.1362-0.5423-0.4061-1.0404-0.8134-1.4931c-0.5877-0.7684-1.0858-1.356-1.5386-1.7634
		c-0.0453-0.0453-0.0895-0.0901-0.1349-0.0901c-0.1362-0.0908-0.362-0.2264-0.6785-0.4521c-0.1815-0.0908-0.2711-0.181-0.362-0.227
		c-0.0453-0.0448-0.0908-0.0448-0.1815-0.0448c0-0.0453-0.0442-0.0453-0.135-0.0901c-0.1815-0.0908-0.3165-0.1356-0.4073-0.1356
		c-0.2258,0-0.4527,0.0448-0.6785,0.2257c-0.1815,0.1356-0.3165,0.4074-0.3165,0.7239c-0.0454,0.181-0.0454,0.3159-0.0454,0.4067
		c0,0.181,0.0454,0.3166,0.1361,0.4521c0,0,0.0442,0.0454,0.0442,0.0908c0.0908,0.181,0.1362,0.3616,0.1362,0.4524
		c-0.1362,0.4074-0.2712,0.995-0.362,1.7188l-0.0896,0.8588c-0.0454,0.0908-0.0908,0.1816-0.1362,0.2712
		c0,0.0454,0,0.0908-0.0454,0.0908c0,0,0,0,0-0.0454c-0.0453,0-0.0453-0.0454-0.0453-0.0895
		c-0.0454-0.0908-0.0896-0.1816-0.1362-0.2724c-0.1803-0.3165-0.4061-0.7692-0.7681-1.4011
		c-0.2711-0.4527-0.4527-0.7692-0.5876-0.9962c0-0.0442,0-0.0442-0.0454-0.0896c-0.0908-0.0908-0.1815-0.2261-0.3619-0.4524
		c-0.1815-0.181-0.2711-0.3619-0.3619-0.4527c-0.0454-0.0448-0.0454-0.0448-0.0454-0.0448
		c-0.0454-0.0454-0.0908-0.0908-0.0908-0.0908l-1.13-0.7686c-0.0908-0.0901-0.1815-0.1356-0.2711-0.2263
		c-0.0454,0-0.0908-0.0448-0.0908-0.0448c-0.0908-0.0908-0.1803-0.1362-0.3165-0.181c-0.2258,0-0.4527,0-0.6331,0.0901
		c-0.1816,0.0448-0.3166,0.1356-0.4074,0.3165c-0.0453,0.0454-0.0453,0.0454-0.0908,0.0908c-0.0896,0.0448-0.135,0.181-0.135,0.2711
		c0,0.1356,0,0.2712,0.0454,0.4521c0.0442,0,0.0442,0.0454,0.0442,0.0454c0,0.1356,0.0454,0.2264,0.1362,0.3165
		c0.0454,0.0902,0.0908,0.1356,0.0908,0.1356c0,0.1356,0.0442,0.2264,0.135,0.3172c0.1816,0.2261,0.4527,0.6322,0.7238,1.1757
		c0.0454,0.0454,0.0454,0.0896,0.0454,0.1362c0.1362,0.2258,0.2711,0.5423,0.4073,1.0392c0,0.0454,0,0.0454,0,0.0908
		c0,0.0908,0,0.2258,0,0.4527c0.0454,0.2258,0.0454,0.4074,0,0.5423c0,0,0,0,0,0.0454c-0.0454-0.0908-0.0908-0.1362-0.1362-0.2258
		c-0.0453-0.0454-0.0895-0.0454-0.0895-0.0908c-0.3178-0.6785-0.8601-1.3569-1.5839-2.0808
		c-0.3165-0.4074-0.7239-0.8135-1.3115-1.3112c-0.0896-0.0908-0.2258-0.181-0.3619-0.2264
		c-0.0908-0.0454-0.1349-0.0901-0.1349-0.0901c-0.0908-0.0908-0.1816-0.1362-0.3165-0.1362c-0.3165-0.0448-0.5889,0-0.7693,0.181
		c-0.0908,0.0908-0.1804,0.1809-0.2258,0.2717h-0.1816c-0.0453,0-0.1349-0.0908-0.1803-0.181h-0.0454
		c-0.6784-0.814-1.5372-1.6281-2.5789-2.352c-1.1754-0.9502-2.3053-1.5827-3.3457-1.9452
		c-0.3165-0.1356-0.6785-0.2258-1.0858-0.2712c-0.227-0.0454-0.4527,0-0.6785,0.0454c-0.1803,0.0448-0.3165,0.0901-0.4527,0.181
		c-0.0908,0.0908-0.1803,0.2257-0.2258,0.3165c-0.0908,0.1356-0.1362,0.2711-0.1815,0.4073c0,0.1803,0,0.3159,0.0908,0.4969
		c0,0.0908,0,0.1816,0.0454,0.3165c0.0454,0,0.0454,0.046,0.0454,0.046c0,0.0901,0,0.1356,0.0454,0.2258l0.4061,0.9496
		c0.0466,0.0901,0.0466,0.1362,0.0908,0.181c0,0,0,0,0.0454,0c0,0.0454,0,0.0454,0,0.0454h-0.0454
		c-0.0442-0.0454-0.0908-0.0901-0.1349-0.181c-0.0454-0.0453-0.0454-0.0453-0.0908-0.0901
		c-0.1349-0.0908-0.3619-0.2717-0.6331-0.4527c-1.5826-1.1306-2.7592-1.99-3.5273-2.6231c-1.3115-0.995-2.4427-1.99-3.4377-2.985
		c-1.8096-1.809-3.4377-3.8898-4.8854-6.1062c-0.0442-0.0901-0.0896-0.1349-0.135-0.1803
		c-0.0908-0.0454-0.1361-0.0901-0.2257-0.2711c-0.0908-0.0908-0.1362-0.1816-0.1816-0.2264
		c-0.2258-0.3171-0.4514-0.4521-0.7238-0.4974c-0.2258-0.0454-0.4515,0-0.633,0.0901c-0.1804,0.0454-0.3166,0.181-0.4061,0.4073
		c-0.0454,0.0902-0.0454,0.2264-0.0908,0.4521l-0.0454,0.4073c-0.0908,0.7686-0.0908,1.4017-0.0454,1.8084
		c0,0.046,0.0454,0.0908,0.0454,0.1362c-0.0454-0.0454-0.1362-0.0901-0.1803-0.1362c-0.0454,0-0.0454-0.0448-0.0908-0.0901
		c-0.0908-0.1356-0.1815-0.2258-0.227-0.2712c-1.3115-1.3115-2.5322-2.804-3.6181-4.4775
		c-0.0453-0.0454-0.0453-0.0908-0.0895-0.1356c-0.1816-0.0908-0.362-0.2717-0.4981-0.4527
		c-0.135-0.1804-0.2258-0.2712-0.2711-0.4067c0,0,0,0,0-0.0454c-0.0908-0.1809-0.2258-0.3619-0.4074-0.6331
		c-0.1349-0.2711-0.2711-0.4527-0.3619-0.5877c0-0.0454,0-0.0454-0.0453-0.0908c-0.0442-0.0454-0.135-0.1809-0.2712-0.2711
		c-0.1349-0.0908-0.1803-0.1356-0.2257-0.1816v-0.0447c-0.1816-0.181-0.4527-0.3165-0.7239-0.3165
		c-0.3165-0.0454-0.5876,0-0.7692,0.1809c-0.1349,0.0454-0.1803,0.1803-0.2258,0.3165c0,0,0,0.0454-0.0454,0.1356
		c-0.0908,0.1809-0.1362,0.3165-0.1362,0.4067c0,0.046,0,0.0908-0.0442,0.1362c-0.0454,0.1356-0.0908,0.2264-0.1362,0.3165
		c0-0.0901-0.0454-0.1362-0.0454-0.181c-0.5877-3.2567-1.0858-5.7436-1.4465-7.4177c-0.5889-2.8034-1.222-5.2909-1.9004-7.5526
		c-0.7693-2.3065-1.7177-4.2064-2.7593-5.608c-0.4515-0.8594-0.9938-1.5833-1.6722-2.2618l-0.362-0.4067
		c0-0.0454-0.0454-0.0901-0.0908-0.0901c0-0.0454-0.0454-0.0908-0.0908-0.227c0-0.0901-0.0454-0.1803-0.0895-0.2711
		c0-0.0454,0-0.0901,0-0.1804c-0.1362-1.8998-0.3165-3.3469-0.4981-4.2971c0,0,0,0,0-0.0448
		c-0.362-1.1312-0.995-2.5329-1.8992-4.2518c-0.2724-0.4521-0.7239-1.0851-1.357-1.9446c-0.4527-0.4975-0.7238-0.9048-0.9496-1.2213
		c-0.0454-0.0454-0.0908-0.1356-0.1362-0.2711c-0.0908-0.1362-0.1803-0.2712-0.2258-0.3166c0-0.0454,0-0.0454-0.0454-0.0908
		c-0.1362-0.1803-0.3619-0.2711-0.5423-0.2711l-0.1362-0.0454c-0.1362,0-0.2258,0.0454-0.3165,0.0908
		c-0.1816,0.1356-0.2712,0.2712-0.3165,0.4969c0,0.0454,0,0.1815,0.0453,0.2717c0,0.0448,0,0.0448,0,0.0448
		c0,0.0908,0.0454,0.1815,0.0896,0.2717l0.0454,0.0454c0.0453,0.0902,0.0908,0.1356,0.0908,0.1356
		c0,0.0908,0.0454,0.181,0.0908,0.2257c0.0908,0.2264,0.2712,0.4981,0.5423,0.8147c0.2258,0.4067,0.4527,0.6785,0.5435,0.9042
		c0.0442,0,0.0442,0.0454,0.0442,0.0454c0.5435,0.6331,0.9054,1.1306,1.0858,1.4477c0.0453,0.1803,0.1362,0.3613,0.2258,0.6778
		c0.0908,0.3619,0.227,0.6785,0.3177,0.9049c1.0392,3.8438,1.4919,7.1459,1.3115,9.95c0,0.3619-0.0466,0.7238-0.0908,1.1306
		c-0.1816,1.7636-0.6785,4.2064-1.4931,7.4171c0,0.0454,0,0.0454,0,0.0454c-0.0454,0-0.0454,0.0454-0.0454,0.0454
		c-0.0454,0.0454-0.0454,0.0908-0.0896,0.181c0-0.0454,0-0.0454,0-0.0454c-0.0908-0.1356-0.1816-0.2712-0.227-0.3613
		c0-0.0908-0.0453-0.1362-0.0895-0.181c0,0-0.0454-0.046-0.0454-0.1362c-0.0454-0.1356-0.0454-0.2264-0.0908-0.3165
		c0-0.0448-0.0454-0.0908-0.0908-0.1356c-0.1803-0.2258-0.3165-0.3619-0.4969-0.4074c-0.1362-0.1803-0.3619-0.2257-0.5876-0.2711
		c-0.1362,0-0.2724,0.0454-0.362,0.0908c-0.227,0.1803-0.3619,0.3619-0.4527,0.4969c-0.0908,0.0908-0.1362,0.2264-0.1803,0.3626
		c-0.0454,0.0901-0.0908,0.1803-0.0908,0.3613c0,0.0908-0.0454,0.181-0.0908,0.2711c-0.2257,0.8601-0.4514,1.5379-0.6784,1.9906
		v0.0448c-0.4515,1.2213-1.0404,2.2611-1.7189,3.0757c-0.4073,0.5423-1.2207,1.4024-2.3065,2.4875
		c-0.5422,0.4975-0.9042,0.8595-1.1753,1.1306c-0.9043,0.8595-1.8551,1.6281-2.8501,2.3065
		c-0.1803,0.0908-0.3619,0.2263-0.5876,0.4527c-0.0908,0.0901-0.1804,0.181-0.2711,0.2258c0,0.0454,0,0.0454,0,0.0454
		c-0.0908,0.0454-0.1804,0.1803-0.2712,0.2712c0,0.0453-0.0453,0.0908-0.0453,0.0908c-0.0908,0.0901-0.1362,0.181-0.1816,0.3165
		v0.181c0,0.0901,0.0454,0.2258,0.0908,0.3159c0.0908,0.1362,0.227,0.1816,0.3165,0.1816l0.2712,0.0448
		c0.1362,0,0.2724-0.0448,0.3619-0.1356c0.0454,0,0.0454,0,0.1362-0.0447c0.135-0.046,0.2258-0.0908,0.3165-0.1362
		c0-0.0448,0-0.0448,0-0.0448c0.0454,0,0.0454,0,0.0908-0.0454c0.0442-0.0454,0.0896-0.0908,0.0896-0.0908
		c0.0453,0,0.0908,0,0.1361,0c0-0.0448,0-0.0448,0-0.0448c0.0454,0.0448,0.0454,0.0448,0.0454,0.0448
		c0,0.2263,0,0.4527,0.0896,0.6337c0.1362,0.9042,0.3178,1.7182,0.6785,2.3513c0.1362,0.4522,0.4527,1.0404,0.9054,1.8545
		c0.2258,0.4073,0.4061,0.7238,0.4969,0.9048c0.0454,0.0454,0.0454,0.0454,0.0454,0.0902c0.0908,0.0901,0.1362,0.1362,0.1362,0.1809
		c0,0.0908,0.0441,0.1356,0.0908,0.2264c-0.0908,0-0.1362,0-0.227,0.0454c0,0,0,0-0.0454,0c-0.1803,0-0.4515,0.1356-0.7226,0.3613
		c-0.1362,0.0908-0.1816,0.1815-0.1816,0.3165l-0.0454,0.4527c0,0.1356,0,0.2711,0.0908,0.4975
		c0.0454,0.1356,0.1362,0.2711,0.1803,0.3613c0.0908,0.1362,0.1816,0.3165,0.2724,0.5883c0.0896,0.3165,0.2258,0.5883,0.3153,0.7232
		c0.4981,0.9049,0.7238,1.7643,0.7693,2.6237c0,0.0454,0,0.0454,0,0.0454c0.0908,0.4975,0.1362,1.0397,0.0453,1.6281
		c0,0.3613-0.0908,0.7232-0.1803,1.1759c-0.5435,2.5777-1.6293,5.2465-3.212,7.9603c-0.9949,1.5373-1.9446,2.9396-2.9395,4.1603
		l-0.8588,0.6785c-0.0908,0.0454-0.2724,0.1362-0.4527,0.227c-0.2258,0.0895-0.4073,0.1803-0.4969,0.1803
		c-1.2674,0.3619-2.7139,0.5422-4.2966,0.5422c-0.1816,0-0.4073,0-0.7238-0.0454c-1.0858,0-1.9446,0-2.4881-0.0896
		c-0.7238-0.0454-1.4465-0.227-2.0354-0.4073c-0.0442,0-0.0442-0.0454-0.0908-0.0454c-0.3607,0-0.6785,0-0.9484,0.1362
		c-0.0466,0-0.0908,0.0454-0.0908,0.0454c-0.0454,0-0.1362,0.0442-0.227,0.1349c-0.1803,0.0908-0.3619,0.1816-0.4514,0.2258
		c0,0.0454-0.0454,0.0908-0.0908,0.1362c-0.0454,0.0908-0.135,0.1362-0.2712,0.2257c-0.0908,0.0454-0.1362,0.0908-0.1815,0.0908
		c-0.0454,0.0453-0.0896,0.0453-0.135,0.0908c-0.1362,0.0454-0.227,0.0896-0.3165,0.0896c-0.0454,0-0.1362,0-0.227,0.0466
		c-0.0442,0-0.0442-0.0466-0.0896-0.0466c-0.0908-0.0442-0.1816-0.0442-0.2269-0.0442c-0.135-0.0908-0.2258-0.1816-0.3608-0.3619
		c-0.0908-0.0908-0.1815-0.227-0.2723-0.4073c-0.0454-0.1362-0.135-0.2258-0.1804-0.3165
		c-0.0453-0.1362-0.1362-0.2712-0.1815-0.4969c0-0.1362-0.0442-0.227-0.0442-0.3177l0.1349-1.3115
		c0-0.1803,0.0908-0.4969,0.3165-0.9042c0.0908-0.2257,0.1362-0.4073,0.1816-0.4981c0.0896-0.0896,0.1349-0.135,0.2258-0.2258
		c0.0908-0.1349,0.1362-0.1803,0.1362-0.1803c0.0442-0.0454,0.0442-0.0454,0.0895-0.0454c0.0454-0.0453,0.0908-0.0908,0.1362-0.1362
		c0,0,0.0454,0,0.0908,0c0.0442,0,0.0442,0,0.0442,0.0454l0.4073,0.4527c0.0454,0.0896,0.1816,0.1803,0.3165,0.2711
		c0.0454,0.0454,0.0908,0.0454,0.0908,0.0908c0.0908,0.0908,0.1816,0.1349,0.3166,0.1349c0.0908,0,0.1803,0,0.2711-0.0442
		c0.0908-0.0466,0.1816-0.0908,0.2258-0.1362c0.1815-0.1362,0.2724-0.2711,0.2724-0.4527c0-0.1349,0-0.2711-0.0908-0.4073
		c-0.0453-0.0896-0.0453-0.135-0.0908-0.2258v-0.0454c0-0.0442,0-0.1349-0.0454-0.1803c0-0.0454-0.0453-0.0908-0.0453-0.1362
		c-0.0442-0.0908-0.0442-0.1349-0.0442-0.1349s0,0,0-0.0454c0.0442-0.0454,0.0442-0.0908,0.0442-0.1816
		c0-0.0453,0.0453-0.1349,0.1362-0.2257c0.0453-0.0908,0.0908-0.1804,0.1362-0.2258c0.3607-0.4527,0.9949-1.1312,1.9446-2.1262
		c1.1754-1.3115,2.0354-2.2611,2.5777-2.9399c0-0.0448,0-0.0448,0-0.0448c0.1362-0.181,0.2711-0.2718,0.4073-0.4074
		c0.135-0.0454,0.1803-0.181,0.1803-0.3165c0.0454-0.2263,0.0454-0.3619,0.0454-0.4521c-0.0454-0.1356-0.0908-0.2717-0.1349-0.3619
		c-0.0454-0.1362-0.0908-0.2711-0.1362-0.4073c-0.0454-0.0902-0.0908-0.1356-0.135-0.1803c0-0.0908-0.0466-0.1362-0.0908-0.1362
		c-0.2724-0.3165-0.6331-0.7687-1.0858-1.4471c-0.3619-0.5429-0.6785-0.9049-0.8588-1.176c-0.0454,0-0.0454-0.0454-0.0454-0.0454
		c-0.9054-0.9496-2.217-2.2611-3.98-3.98c-0.6331-0.6331-1.1312-1.0858-1.4477-1.4471c-0.0908-0.0454-0.1803-0.1356-0.3165-0.2718
		c-0.0908-0.0902-0.1803-0.135-0.1803-0.181c0,0,0,0-0.0454,0c0-0.0448,0-0.0448-0.0454-0.0902
		c-0.2257-0.2263-0.4527-0.3619-0.6331-0.4067c-0.3177-0.0454-0.5876,0.0448-0.8146,0.2257
		c-0.1804,0.1356-0.3166,0.3619-0.3166,0.5429c0,0.0902,0,0.181,0,0.3165c-0.0453-0.0454-0.0908-0.0908-0.0908-0.0908
		c-0.0442-0.0448-0.0442-0.0448-0.0908-0.0902c-0.135-0.0454-0.2699-0.181-0.4061-0.3613l-0.0454-0.046
		c-0.1362-0.1356-0.3619-0.3613-0.6331-0.6331c-0.2711-0.2712-0.4981-0.4975-0.6331-0.6331
		c-0.8147-0.995-1.4023-1.8538-1.7643-2.6685c-0.362-0.7238-0.7238-1.5379-0.995-2.4421c-0.1815-0.4975-0.4515-1.3115-0.7692-2.3519
		c-0.0896-0.2717-0.1349-0.4975-0.1804-0.6785c0-0.1356,0-0.3165-0.0454-0.4975c-0.0453-0.0448-0.0453-0.0908-0.0453-0.1356
		c0-0.0454,0-0.1356,0-0.181c-0.0896-0.2264-0.2258-0.4521-0.4061-0.6785c-0.0466-0.0454-0.0466-0.0454-0.0466-0.0454
		c-0.0896-0.1356-0.1804-0.181-0.3165-0.181l-0.3165-0.0448c-0.1803,0-0.3619,0.0448-0.5423,0.181
		c-0.1362,0.1356-0.2712,0.2711-0.2712,0.4969l-0.0454,0.4975c-0.1362,0.4073-0.2258,0.9048-0.3165,1.5833
		c-0.1362-0.2712-0.2712-0.6785-0.3619-1.1306c0-0.0454,0-0.0454,0-0.0454c-1.4465-5.3363-1.8992-10.1757-1.4465-14.5183
		l0.0442-0.5423c0-0.1362-0.0442-0.2711-0.0896-0.3619c-0.0908-0.0908-0.1816-0.1356-0.2724-0.1809
		c-0.0896-0.0448-0.1803-0.0902-0.2711-0.0902c-0.0899,0-0.1807,0-0.2715,0.0454c-0.181,0.0448-0.3619,0.1803-0.4521,0.3613
		c0,0.0454-0.0448,0.1356-0.0448,0.181c-0.0453,0.0908-0.0908,0.1809-0.0908,0.3165c0,0.0454,0,0.1809,0,0.2711l-0.3165,2.171
		c-0.0454,0-0.0454,0.0454-0.0454,0.0454c-0.2711,2.8047-0.2263,5.4725,0.2264,8.0054l0.1355,1.0858l-0.0454,0.4521
		c0,0-0.0453,0.0454-0.0901,0.0902h-0.0454c-0.0448,0.0454-0.0448,0.0454-0.1356,0.0454c-0.0908,0.0448-0.181,0.0448-0.2717,0.0908
		c-0.4521-0.046-0.8588-0.046-1.13,0.0447c-0.4527,0.0908-0.9949,0.0908-1.5833,0.0454c-0.6785-0.0901-1.6734-0.3165-2.985-0.6785
		c-0.1355-0.0454-0.2264-0.0901-0.3619-0.0901c-0.0902-0.0454-0.181-0.0454-0.3165,0c-0.0454,0-0.0902,0-0.0902,0
		c-0.1362,0-0.2717,0.0448-0.3619,0.1356c-0.0908,0.0454-0.1362,0.0902-0.1362,0.0902c-0.135,0-0.2258,0.0454-0.3165,0.1356
		c-0.0454,0.0454-0.0902,0.0908-0.1356,0.1362c-0.0901-0.0454-0.1809-0.0454-0.2263-0.0908
		c-0.0448-0.0454-0.0902-0.0454-0.1803-0.0901c-0.0454,0-0.0908-0.0454-0.1816-0.0908c-0.6331-0.2258-1.0398-0.4067-1.3115-0.5883
		c-0.0901-0.0448-0.1349-0.0901-0.2257-0.0901c-0.0908-0.0448-0.1356-0.0902-0.2258-0.1356
		c-0.0454-0.0908-0.0908-0.1356-0.1362-0.181c0-0.0448,0-0.0902-0.0454-0.1356c0.0454-0.0908,0.0908-0.1809,0.0908-0.2257
		c0.3165-2.9402,0.4521-5.2468,0.4073-6.8754c0-1.5827-0.2717-2.8488-0.7239-3.8438c0-0.2263-0.0908-0.4073-0.1809-0.6785
		c-0.0454-0.0454-0.0454-0.1362-0.0902-0.1362c0-0.0447-0.0454-0.0901-0.0454-0.1349c-0.0453,0-0.0453-0.0454-0.0453-0.0454
		c-0.1356-0.2711-0.3165-0.4073-0.5429-0.4527h-0.1356c-0.1356-0.0448-0.2711,0-0.3619,0.0908
		c-0.0901,0.0908-0.1356,0.181-0.1803,0.3165c0,0.2711,0,0.4975,0.0902,0.6784c0.0448,0.0454,0.0448,0.1356,0.0901,0.2258
		c0,0,0,0.0454,0.0454,0.0454c0,0.0454,0,0.0908,0,0.181c0.2258,0.5883,0.4073,1.2213,0.4521,1.9446
		c0.0454,0.4073,0.0902,1.0858,0.0902,1.99c0,0.0908,0,0.1362,0,0.181c0,0.8601-0.0448,1.7643-0.135,2.6691
		c-0.1362,1.3109-0.4073,2.7132-0.7238,4.2511c-0.1362,0.2264-0.181,0.5429-0.2712,0.9049c0,0.0448-0.0454,0.0901-0.0454,0.1356
		c-0.0454-0.2264-0.1362-0.3619-0.181-0.4975c-0.0454,0-0.0454,0-0.0454-0.0454c-0.0448,0-0.0901-0.0901-0.1356-0.181
		c-0.0908-0.1809-0.181-0.2717-0.2258-0.3619c-0.0908-0.1356-0.1815-0.2264-0.227-0.2712
		c-0.0902-0.0454-0.2258-0.0901-0.3613-0.0901c-0.4073-0.0454-0.6785,0.0448-0.7686,0.3165
		c-0.1362,0.181-0.2264,0.3613-0.2717,0.5877c-0.2718,1.5379-0.9049,3.2108-1.8999,5.0658c0,0.0448,0,0.0448,0,0.0448
		c-0.1803,0.3619-0.4521,0.8594-0.9042,1.5379c-0.181,0.2712-0.3165,0.4975-0.4067,0.6331
		c-0.0908,0.0902-0.1362,0.1362-0.1815,0.2264c-0.0448,0-0.0448,0-0.0902-0.0454c-0.0448,0-0.0901-0.0448-0.1356-0.1356
		c0,0,0-0.0454-0.0454-0.0908c-0.0453-0.1356-0.0908-0.2258-0.1356-0.3165c-0.1356-0.3166-0.2717-0.5877-0.3619-0.7233
		c-0.0901-0.181-0.2263-0.3619-0.3619-0.4975c-0.0448-0.0454-0.0448-0.0454-0.0448-0.0454c-0.0908-0.0901-0.2264-0.181-0.3619-0.181
		c-0.3616-0.0454-0.5886,0-0.7689,0.1356c-0.0908,0.0453-0.2258,0.1362-0.3619,0.2263c-0.0454,0.0454-0.0454,0.0454-0.0908,0.0454
		c-0.0442,0.0448-0.0896,0.0901-0.135,0.1356c-0.1362,0.2258-0.1815,0.4521-0.227,0.7233
		c-0.0442,0.0908-0.0896,0.2263-0.1349,0.4073c-0.0908,0.181-0.1362,0.3165-0.1816,0.3619
		c-0.0442,0.0448-0.0442,0.0448-0.0442,0.0901c-0.1816,0.4975-0.5435,1.0852-1.0404,1.8545
		c-0.1362,0.2258-0.227,0.4067-0.3165,0.4975c-0.3165,0.4527-0.8146,1.0858-1.5385,1.9446
		c-0.2711,0.2711-0.4515,0.5429-0.5423,0.6785c-0.1362,0.1356-0.2711,0.2717-0.4981,0.4981
		c-0.0442,0.0448-0.0896,0.0902-0.135,0.135l0.0454-0.3165c0-0.0902-0.0454-0.2712-0.0908-0.4521c0,0-0.0454,0-0.0454-0.0453
		c0-0.0902-0.0454-0.1804-0.0908-0.2712c-0.0896-0.0901-0.1804-0.181-0.3166-0.181l-0.406-0.0453
		c-0.2724-0.0448-0.5435,0.0908-0.8601,0.3619c0,0.0454-0.0453,0.0908-0.0453,0.0908c-0.0454,0.0901-0.135,0.181-0.2258,0.2711
		c-0.0908,0.1356-0.1816,0.2712-0.2712,0.3619l-0.0453,0.0448c-1.357,1.2668-2.352,2.2163-3.0758,2.804
		c-1.1754,0.995-2.3519,1.8097-3.4377,2.4882c-1.2661,0.7686-2.7126,1.5372-4.2511,2.2611
		c-0.9497,0.4527-2.352,1.0858-4.2511,1.8992c-1.8097,0.7692-3.1654,1.3576-4.0708,1.7643
		c-1.0404,0.4972-2.4415,1.2664-4.2057,2.3964c-0.3165,0.1815-0.5423,0.3177-0.7238,0.4073c0,0.0454-0.0454,0.0454-0.0454,0.0454
		c-0.2258,0.1815-0.5423,0.3619-0.995,0.4981c-0.1349,0.0454-0.2258,0.0908-0.3165,0.135c-0.0454,0-0.1349,0-0.1804,0.0453
		c-0.1362,0-0.1816,0-0.2712,0c-0.1361,0-0.227,0.0454-0.3619,0.1362c-0.0454,0.0454-0.0908,0.0908-0.1362,0.1804
		c-0.0454,0-0.0908,0.0454-0.1362,0.0454c-0.0896,0.0908-0.135,0.1816-0.1804,0.3165c0,0.227,0.0454,0.4527,0.2257,0.6331
		c0.0454,0.1362,0.1816,0.1816,0.3166,0.227h0.2723c0.135,0.0442,0.2712,0,0.4515-0.0908c0.0454,0,0.0454,0,0.0454,0h0.1815v0.2258
		c-0.0454,0.0454-0.0908,0.0908-0.0908,0.1362c-0.0454,0.0454-0.0454,0.0896-0.0908,0.0896
		c-0.0908,0.0908-0.1803,0.1815-0.1803,0.3631l-0.0454,0.2711c-0.0454,0.0896-0.0454,0.1804-0.0908,0.2712
		c0,0.0896,0,0.1803,0.0454,0.2711c0,0.0454,0,0.0454,0,0.0454c0,0.0896,0.0454,0.2258,0.0908,0.3165
		c0.0895,0.0896,0.2257,0.1362,0.3165,0.1803h0.3165c0.1349,0.0454,0.2257,0,0.3619-0.0908
		c0.0896-0.0896,0.1803-0.135,0.2712-0.2258c0.0454-0.0442,0.0908-0.0908,0.1349-0.1349c0.0454-0.0908,0.0908-0.1816,0.1362-0.2724
		c0.0454-0.0896,0.0454-0.135,0.0908-0.135c0.0454-0.0453,0.0895-0.0908,0.1349-0.1815c0.1362-0.3153,0.227-0.7226,0.3165-1.2662
		c0-0.0453,0.0454-0.1349,0.1362-0.2257c0.0454-0.0454,0.0908-0.0908,0.1362-0.1362c0.0442-0.0442,0.0442-0.0896,0.0896-0.135
		c0,0,0,0,0.0454,0c0.0908,0.0454,0.2258,0,0.3165-0.0454c0-0.0454,0-0.0454,0-0.0454c0.0454,0,0.1362,0,0.2712,0.0454h0.0454
		h1.5385c0.7226,0.0908,1.6734-0.0908,2.8488-0.4074c0,0,0,0.0454-0.0454,0.0454c-0.0454,0.0454-0.0908,0.0908-0.135,0.1815
		c-0.1362,0.3166-0.2724,0.5877-0.4527,0.8135c0,0.0453,0,0.0453-0.0454,0.0453c-0.1803,0.3619-0.6784,0.8147-1.4477,1.4465
		c-0.0896,0.0453-0.2712,0.1815-0.4969,0.3165c-0.2711,0.1815-0.4527,0.3165-0.5422,0.4073
		c-0.3178,0.1362-0.7692,0.4527-1.3128,0.9042c-0.0442,0.0466-0.0442,0.0466-0.0896,0.0908
		c-1.0404,0.5889-2.0808,0.995-3.1211,1.3115c-0.135,0-0.2711,0.0454-0.4527,0.0908c-0.8134,0.1816-1.4465,0.227-1.8538,0.1816
		c-0.9496-0.0908-1.6281-0.227-1.99-0.4074c-0.1803-0.1362-0.3165-0.2257-0.5422-0.2257c-0.227-0.0454-0.4074,0-0.5435,0.1349
		c-0.2257,0.0908-0.4061,0.1816-0.6331,0.362c-0.0908,0.0453-0.1804,0.0453-0.2711,0.0453
		c-0.0908-0.0453-0.1362-0.0908-0.2258-0.1815c-0.0454-0.0896-0.1362-0.135-0.1816-0.135
		c-0.2257-0.0908-0.5422-0.3165-0.9949-0.7238c-0.0454,0-0.0896-0.0454-0.0896-0.0454c-0.2724-0.2257-0.6785-0.6784-1.222-1.3569
		c-0.2712-0.3165-0.3619-0.5423-0.3619-0.6785c0-0.1349,0-0.2258-0.0896-0.3619c0,0-0.0454-0.0453-0.0454-0.1349
		c-0.0454-0.0908-0.0454-0.1816-0.0908-0.2724c0-0.135-0.0454-0.2712-0.1803-0.4061c-0.0908-0.0908-0.1816-0.1816-0.3177-0.227
		c-0.0896-0.0896-0.2258-0.1803-0.3608-0.1803c-0.227,0-0.4073,0.0453-0.5889,0.1803c-0.0895,0.0453-0.1349,0.1815-0.1803,0.2724
		c0,0.0442,0,0.0442-0.0454,0.0895c-0.0908,0.1362-0.1362,0.2712-0.1362,0.4074v0.0454c-0.0442-0.0454-0.0442-0.135-0.0442-0.2258
		c0-0.0454,0.0442-0.0454,0-0.0908V89.884c0-0.6331,0.0442-1.2207,0.0896-1.6734c0.227-1.9897,0.7239-3.5276,1.4931-4.7483
		c1.5372-2.2617,3.4365-4.7038,5.6988-7.3275c1.4919-1.7183,3.7077-4.161,6.6485-7.3263c0.4061-0.4975,0.6331-0.9502,0.6785-1.3569
		c0-0.0454,0.0442-0.0908,0.0896-0.1362c0.227-0.0901,0.3619-0.1803,0.4981-0.2711c0.0454-0.0448,0.0454-0.0448,0.0454-0.0448
		c0.0896-0.0908,0.1803-0.181,0.2712-0.3626c0.0454-0.1349,0.1349-0.2257,0.2257-0.2711c0-0.0454,0.0454-0.0454,0.0454-0.0902
		c0.1362-0.1362,0.2711-0.3619,0.4527-0.6336c0.1803-0.2712,0.3165-0.4515,0.4061-0.5423c0-0.0454,0.0454-0.0908,0.0454-0.1362
		c0.5435-1.1306,0.9949-2.4415,1.4477-3.8892c0.2712-0.8595,0.6331-2.1256,1.0858-3.8444c0.4073-1.4925,0.7238-2.6231,0.9042-3.3923
		c0.5877-1.7183,1.5827-3.5273,2.9396-5.4725c0.0908-0.0447,0.1816-0.1349,0.227-0.2711c0.0442-0.0454,0.0442-0.0454,0.0896-0.0908
		c0.0908-0.0902,0.1362-0.1803,0.1362-0.2712l0.0454-0.4521c0-0.1356,0-0.2263-0.0908-0.3165
		c-0.0908-0.1356-0.1803-0.181-0.3165-0.181l-0.3165-0.0454c-0.2258-0.0454-0.4981,0.0908-0.8147,0.3619
		c-0.1804,0.181-0.3619,0.3165-0.4061,0.4975c-0.0908,0.0902-0.227,0.2264-0.3619,0.3619c-0.4527,0.5883-0.86,0.995-1.1312,1.2213
		h-0.0454c0,0-0.0454,0.0454-0.0908,0.0902c-0.2258,0.181-0.4061,0.3619-0.4969,0.5429c-0.0454,0-0.0454,0-0.0908,0
		c-0.135,0.0902-0.2712,0.1356-0.3165,0.0902c-0.135,0-0.2258,0-0.2258-0.0448c-0.0454-0.0454-0.0908-0.0454-0.1816-0.0908
		c-0.2711-0.1356-0.7226-0.3165-1.2661-0.5423c-0.4515-0.1816-0.8134-0.3172-1.0404-0.4073
		c-0.0454-0.0454-0.0895-0.0454-0.1804-0.0454c-0.0908,0-0.1815-0.0454-0.3165-0.1356c0.0454-0.0454,0.0908-0.0454,0.0908-0.0902
		c0.0442-0.0454,0.0895-0.0454,0.1349-0.0908c0.0908-0.0454,0.1362-0.0908,0.1816-0.1356c0.1803-0.1356,0.4061-0.3172,0.768-0.5883
		c5.0204-3.9346,8.7292-6.9196,11.1266-8.9096c2.1249-1.6281,4.6584-3.3923,7.5073-5.3369
		c2.8954-1.7188,5.5639-3.1659,8.0508-4.3419c2.7589-1.2661,5.4268-2.3065,8.005-3.0757
		c8.8194-2.3967,16.5988-3.6181,23.3822-3.6635l7.6435,0.2264c0.0908,0,0.227,0.0454,0.3165,0.1355
		c0.0908,0.0454,0.1362,0.0454,0.227,0.0454l0.2711,0.0454c0.1362,0,0.2712,0,0.3619-0.1362
		c0.2258-0.1349,0.3165-0.3613,0.3165-0.5423c0.0454-0.1356,0-0.2711-0.0908-0.3619c-0.0442-0.0454-0.0896-0.0908-0.1804-0.1356
		c-0.0454-0.0454-0.1362-0.1356-0.1803-0.1356c-0.1816-0.1362-0.4074-0.2263-0.6785-0.2711
		c-0.1816-0.0454-0.4074-0.1362-0.6785-0.1816c-0.3165-0.0901-0.4981-0.1349-0.6331-0.2257c-0.0466,0-0.0908,0-0.1362-0.0454
		c-2.1716-0.3619-4.2965-0.6785-6.3773-0.8588c-3.9346-0.4073-7.8238-0.5435-11.5784-0.4073
		c-3.7536,0.1356-7.1913,0.4521-10.402,0.9496c-3.7089,0.5876-7.2368,1.4023-10.6288,2.4875
		c-4.8388,1.6287-10.2665,3.9352-16.4168,6.8749c-3.6193,1.7636-9.0912,4.613-16.4181,8.4575
		c-0.1816,0.1356-0.3165,0.1809-0.4074,0.2711c-3.4818,1.7636-7.4619,3.1206-12.0307,4.1155c0,0,0,0-0.0454,0
		c-1.8538,0.4074-3.9346,0.7693-6.2865,1.0404c-1.4011,0.181-3.5273,0.3619-6.3319,0.5876
		c-3.3015,0.227-5.7884,0.4527-7.4165,0.6785c-3.9346,0.4074-8.187,1.1766-12.7092,2.3072
		c-3.7997,0.9496-8.0508,2.2163-12.7546,3.799c-3.753,1.3115-7.9146,3.2108-12.3915,5.8798c-0.0454,0-0.0454,0.0448-0.0454,0.0448
		c-0.2723,0.181-0.5889,0.3619-0.9496,0.5429c-0.0454,0-0.0908,0.0448-0.1362,0.0448C7.5729,57.6825,7.5275,57.7272,7.4821,57.7272z
		 M2.7341,57.6825c0.2258-0.4527,0.4515-0.995,0.8135-1.5379c0.1815-0.3619,0.5435-0.8594,0.9496-1.4931
		c0.3165-0.4515,0.5435-0.814,0.6785-1.0398c0,0,0,0,0.0454,0c0,0,0,0,0-0.0454l0.4527-0.6331c0.0454,0,0.0454,0,0.0454-0.0448
		c0,0,0,0,0.0442,0c0.0454-0.046,0.0908-0.1362,0.1816-0.1815c0.1362-0.1356,0.2257-0.2258,0.3165-0.2712
		c0.1362-0.0454,0.2711-0.0908,0.4073-0.0454c0.0896,0,0.135,0.0454,0.1803,0.0454c0.0454,0.0454,0.0454,0.0908,0.0454,0.181
		c0,0.0448-0.0454,0.0902-0.0908,0.1356c-0.0454,0.0454-0.0896,0.0454-0.1804,0.0454c-0.0454,0-0.1815,0.0908-0.3165,0.2258
		c-0.0908,0.0908-0.1815,0.181-0.2257,0.2263l-0.4981,0.6337c-0.1362,0.2258-0.3619,0.5423-0.6785,1.0398
		c-0.4527,0.6331-0.7692,1.1306-0.9496,1.4477c-0.3165,0.5422-0.5876,1.0397-0.7692,1.4919c0,0.0454-0.0454,0.0908-0.0896,0.0908
		C3.0506,57.999,3.0053,57.999,2.9598,57.999c-0.0908,0-0.1362-0.0454-0.1815-0.0908c-0.0442-0.0454-0.0442-0.0901-0.0442-0.181
		V57.6825z"/>
	<path fill="#022A5D" d="M109.0186,72.924c-0.4981-0.0454-0.8147-0.4521-0.7693-0.8594c0-0.4527,0.4528-0.7239,0.9055-0.7239
		c0.4969,0.0454,0.8588,0.4521,0.8134,0.8595C109.9228,72.6528,109.5154,72.9688,109.0186,72.924z"/>
	<path fill="#022A5D" d="M50.9909,22.9925c-0.0442-0.1809-0.0896-0.4067-0.0896-0.6331c0-0.0901,0-0.181,0.0454-0.3165
		c0-0.0901,0-0.181,0-0.3172l0.0896-0.5876c0.1815-0.2711,0.3165-0.4073,0.4981-0.362c0.0454,0,0.0908,0,0.135,0.0454
		c0.0454,0,0.0908,0.0454,0.0908,0.0908c0.0454,0.0454,0.0454,0.0902,0.0454,0.1356c0,0.0448,0,0.0902-0.0454,0.181l-0.0454,0.4067
		c0,0.1355,0,0.2717,0,0.3172c0,0.0901,0,0.1803,0,0.2711c0,0.1803,0,0.3619,0.0454,0.5423c0,0.0454,0,0.0454,0,0.0454
		c0,0.1362,0,0.2711,0,0.4073c0,0.1356,0,0.2258,0.0454,0.3619c0.0454,0.1349,0.0908,0.2711,0.1362,0.4067
		c0.0442,0.1356,0.1349,0.2717,0.2258,0.4067c0,0.0454,0.0454,0.1362,0.0908,0.2717c0,0.0902,0.0454,0.1356,0.0454,0.181
		c0.0442,0.0454,0.0896,0.1356,0.0896,0.181c0.0908,0.1356,0.1362,0.2263,0.227,0.2711c0.1349,0.0454,0.2257,0.1355,0.3165,0.2264
		c0.0454,0.0454,0.0895,0.1356,0.1803,0.2257c0.0454,0,0.0908-0.0447,0.1362-0.0447c0.0454,0.0447,0.0454,0.0447,0.0454,0.0901
		s0,0.0908,0,0.181c0,0,0,0.0454-0.0454,0.0902c-0.0454,0.0454-0.0908,0.1362-0.1362,0.1815c-0.0454,0-0.0908,0.0448-0.135,0.0448
		c-0.0908,0.0454-0.1362,0.0454-0.1815,0.0454c-0.0454,0-0.1362-0.0454-0.1803-0.0454c-0.0454-0.0448-0.0908-0.0901-0.0908-0.1356
		c-0.0454,0-0.0908,0-0.1362,0c0-0.0454-0.0454-0.0454-0.0896-0.0908c-0.0454,0-0.0908-0.0448-0.0908-0.0448
		c-0.0454,0-0.0454,0-0.0908,0c-0.2712-0.181-0.4527-0.4067-0.5423-0.6785c-0.0908-0.0902-0.227-0.3619-0.3165-0.7233
		c-0.0454-0.227-0.1362-0.4527-0.1816-0.7692C51.0817,23.671,51.0363,23.3544,50.9909,22.9925z"/>
	<path fill="#022A5D" d="M135.7927,49.1342c-0.4518-0.0454-0.8137-0.4074-0.7683-0.8595c0.0447-0.4067,0.4521-0.7233,0.9045-0.6785
		c0.4981,0.0454,0.8588,0.4067,0.8147,0.814C136.6981,48.8631,136.2908,49.1796,135.7927,49.1342z"/>
	<path fill="#022A5D" d="M121.5465,51.983c0,0,0,0.0454-0.0454,0.0454c0,0,0,0-0.0453,0c0,0-0.0454,0-0.0902,0
		c-0.0448-0.0454-0.0448-0.0454-0.0901-0.0902c0-0.0901-0.0454-0.1356-0.0454-0.2263c0-0.0454-0.0454-0.0902-0.0454-0.0902
		c-0.0453-0.0454-0.0453-0.0901-0.0908-0.1356c0-0.0454,0-0.0908,0-0.0908c-0.0448-0.0454-0.0448-0.0902-0.0902-0.1356
		l0.0902-0.7232c-0.0448-0.1362-0.0902-0.4074-0.1803-0.7239c-0.0454-0.3619-0.1362-0.6331-0.1362-0.8146
		c-0.0902-0.2712-0.1349-0.5423-0.2258-0.7681c-0.1362-0.6337-0.3619-1.1765-0.6331-1.6287
		c-0.0454-0.1356-0.0908-0.3165-0.0908-0.4521c0-0.0908,0-0.181,0-0.3165h0.0453c0.0908-0.0454,0.1356-0.0908,0.2258-0.0908
		c0.0908,0,0.1362,0.0454,0.2264,0.1362c0,0,0.0454,0,0.0901,0.0448c0,0.0454,0.0454,0.0454,0.0454,0.1356
		c0.0454,0,0.0454,0.0454,0.0454,0.0454c0.0453,0.0454,0.0453,0.0454,0.0453,0.0908c0,0.0448,0,0.0448,0.0454,0.0901
		c0,0.0448,0,0.0448,0,0.0902c0.0454,0.0908,0.0454,0.1362,0.0454,0.1815c0.0447,0.0902,0.0447,0.1804,0.0447,0.2258
		c0.1356,0.5429,0.3165,1.0858,0.4067,1.6281c0.1816,0.6331,0.2717,1.176,0.3619,1.7643l0.1362,1.2661c0,0.0454,0,0.0454,0,0.0908
		c0,0,0.0454,0.0448,0.0454,0.0901v0.0448c0,0.0454,0,0.0454,0,0.0908c0,0.0454-0.0454,0.0908-0.0908,0.1356
		C121.5465,51.9382,121.5465,51.983,121.5465,51.983z"/>
</g>
</svg>
